<svg width="53" height="48" viewBox="0 0 53 48" fill="none" xmlns="http://www.w3.org/2000/svg">
<path d="M26.4791 31.0689C26.2077 31.0689 25.9487 30.9609 25.7573 30.7702C18.4685 23.4885 10.9297 15.9582 10.9297 8.27815C10.9297 3.71374 14.6454 0 19.2124 0C22.4061 0 25.0941 1.36808 26.4895 3.49831C27.8596 1.24377 30.379 0 33.74 0C38.3096 0 42.0266 3.71374 42.0266 8.27815C42.0266 15.9517 34.4995 23.4742 27.2211 30.7494L27.1996 30.7702C27.0089 30.9609 26.7492 31.0689 26.4791 31.0689ZM19.2124 2.03911C15.7714 2.03911 12.9714 4.83711 12.9714 8.2775C12.9714 14.8784 19.7161 21.8431 26.4778 28.6068C33.2362 21.8431 39.9842 14.8791 39.9842 8.2775C39.9842 4.83711 37.183 2.03911 33.74 2.03911C31.2459 2.03911 28.1355 2.839 27.4834 6.65168C27.3975 7.15739 26.9471 7.52121 26.4355 7.49908C25.9233 7.47825 25.5054 7.07993 25.4618 6.56967C25.2009 3.59529 22.121 2.03911 19.2124 2.03911Z" fill="#ED4E08"/>
<path d="M29.9832 16.3194H22.8805C22.1763 16.3194 21.6055 15.7493 21.6055 15.045C21.6055 14.3408 22.1763 13.772 22.8805 13.772H29.9832C30.6881 13.772 31.2582 14.3415 31.2582 15.045C31.2582 15.7493 30.6881 16.3194 29.9832 16.3194Z" fill="#ED4E08"/>
<path d="M26.4306 19.8672C25.7264 19.8672 25.1562 19.2971 25.1562 18.5935V11.4973C25.1562 10.7924 25.7264 10.2223 26.4306 10.2223C27.1348 10.2223 27.7063 10.7924 27.7063 11.4973V18.5935C27.7063 19.2971 27.1348 19.8672 26.4306 19.8672Z" fill="#ED4E08"/>
<path d="M12.3484 41.5613C12.051 41.5613 11.7581 41.4318 11.5589 41.189C11.2088 40.7627 10.7551 40.2212 10.2286 39.5931C8.55071 37.5924 6.25256 34.8517 4.43995 32.4286C3.98045 31.8187 2.72886 29.5017 1.66603 26.91C0.271909 23.5139 -0.250722 21.0127 0.11115 19.4754L2.20428 10.6069C2.40995 9.73738 3.09464 9.17505 3.9479 9.17505C5.67331 9.17505 7.51325 11.4055 7.60698 15.1388C7.60763 15.2149 7.60177 15.2911 7.5868 15.3659L7.55946 15.5046C7.00559 18.2479 6.72768 19.6244 6.92033 20.7328C6.9698 21.0146 7.0531 21.2965 7.17416 21.5985C7.59266 20.9691 8.26759 20.6118 9.05056 20.6118C10.308 20.6118 11.7594 21.4969 13.3631 23.2431C14.064 23.9226 14.9329 24.7857 16.3342 26.3998C16.672 26.7896 16.9187 27.0604 17.1172 27.2771C17.8396 28.0685 17.9412 28.2293 18.128 29.2518C18.18 29.5382 18.2503 29.9293 18.3772 30.4956L19.798 36.8524C19.8976 37.2982 19.6874 37.7558 19.2852 37.9719L12.8333 41.4409C12.679 41.5216 12.5124 41.5613 12.3484 41.5613ZM4.1373 11.2981L2.09884 19.942C1.49746 22.494 5.28865 30.1636 6.07228 31.205C7.85495 33.5851 10.131 36.3005 11.7939 38.2836C12.0861 38.6331 12.3569 38.9553 12.6009 39.2475L17.6366 36.5406L16.3843 30.9388C16.249 30.3315 16.1728 29.917 16.1194 29.6143C16.0791 29.395 16.0374 29.1691 16.0127 29.121C15.9795 29.0572 15.807 28.8684 15.6085 28.6497C15.4133 28.4356 15.1451 28.1434 14.7917 27.7347C13.4275 26.1655 12.5938 25.3376 11.9202 24.6848C11.9052 24.6711 11.8909 24.6561 11.8778 24.6405C10.142 22.7459 9.21783 22.6496 9.04991 22.6496C8.92169 22.6496 8.89891 22.6808 8.86116 22.7452C8.66916 23.0817 8.6568 24.1029 9.4235 25.4306C9.47296 25.4931 9.53024 25.5634 9.59272 25.6402L9.70987 25.7789C10.0529 26.183 10.7682 27.0252 12.1694 28.7129C12.1772 28.7233 12.185 28.7337 12.1935 28.7441C12.4968 29.1411 12.5567 29.5349 12.3686 29.9143C12.1968 30.2619 11.8427 30.4825 11.4528 30.4825C10.9699 30.4825 10.7675 30.2443 10.3653 29.7699C10.1785 29.5505 9.924 29.2472 9.64478 28.912C9.0779 28.2306 8.4264 27.4405 8.02157 26.9439C7.84584 26.7369 7.77425 26.6497 7.71176 26.5495L7.50349 26.224C4.40545 21.3895 4.35078 21.0778 5.55485 15.1023L5.56136 15.0789C5.4774 12.7085 4.5955 11.5962 4.1373 11.2981Z" fill="#ED4E08"/>
<path d="M14.7173 47.1807C14.6197 47.1807 14.5208 47.1671 14.4244 47.1371C14.1654 47.0597 13.948 46.882 13.8198 46.6438L10.9398 41.2944C10.8116 41.0562 10.7823 40.7777 10.8604 40.5186C10.9398 40.2596 11.1162 40.0416 11.3563 39.914L19.7627 35.3984C20.2574 35.1322 20.8783 35.3177 21.1445 35.8136L24.0238 41.1584C24.152 41.3966 24.1813 41.6758 24.1032 41.9362C24.0258 42.1946 23.8468 42.412 23.6092 42.5408L15.2022 47.059C15.0519 47.1397 14.8852 47.1807 14.7173 47.1807ZM13.2217 41.2274L15.1339 44.7797L21.7432 41.2274L19.8311 37.6777L13.2217 41.2274Z" fill="#ED4E08"/>
<path d="M40.6559 42.0266C40.4912 42.0266 40.3246 41.9876 40.1736 41.9049L33.7165 38.4359C33.313 38.2198 33.1028 37.7623 33.203 37.3158L34.6264 30.9596C34.7546 30.3894 34.8249 29.997 34.8763 29.7106C35.0618 28.6894 35.1647 28.528 35.8904 27.7359C36.0882 27.5198 36.3342 27.2504 36.6701 26.8657C38.072 25.251 38.9396 24.3873 39.6419 23.7078C41.2449 21.9616 42.6969 21.0764 43.9537 21.0764C44.7361 21.0764 45.411 21.4338 45.8288 22.0625C45.9505 21.7611 46.0338 21.4787 46.084 21.1962C46.2753 20.0891 45.998 18.7119 45.4455 15.9699L45.4181 15.8313C45.4025 15.7564 45.396 15.6809 45.3973 15.6048C45.491 11.8708 47.331 9.63843 49.0557 9.63843C49.909 9.63843 50.593 10.2001 50.7961 11.069L52.8892 19.9401C53.762 23.6304 49.2165 32.0205 48.5663 32.892C46.7504 35.317 44.4516 38.0584 42.7737 40.0591C42.2485 40.6865 41.7942 41.228 41.4441 41.6537C41.2442 41.8965 40.9533 42.0266 40.6559 42.0266ZM35.3638 37.0073L40.4027 39.7142C40.6448 39.4226 40.9156 39.0998 41.2084 38.7509C42.8714 36.7678 45.1487 34.0524 46.9301 31.6729C47.7378 30.5893 51.5127 22.9932 50.9009 20.4087L48.8637 11.7621C48.4088 12.0615 47.5269 13.1745 47.4403 15.5436L47.4468 15.567C48.6516 21.5431 48.5956 21.8542 45.4956 26.6861L45.286 27.0122C45.2229 27.1144 45.1441 27.2087 44.9756 27.4092C44.5798 27.898 43.9433 28.6706 43.3536 29.3793C43.0744 29.7145 42.8226 30.0172 42.6351 30.2358C42.2368 30.7071 42.0363 30.9427 41.5599 30.9479C41.5554 30.9479 41.5514 30.9479 41.5488 30.9479C41.1622 30.9479 40.8082 30.7298 40.6364 30.3836C40.4444 30.0035 40.5029 29.6078 40.8082 29.2088C40.8166 29.1984 40.8238 29.1886 40.8329 29.1776C42.1613 27.5758 42.859 26.7518 43.2319 26.3093L43.3999 26.1101C43.4643 26.0301 43.5235 25.9572 43.5743 25.894C44.3423 24.5663 44.3319 23.5458 44.1399 23.2099C44.1021 23.1461 44.0787 23.1156 43.9524 23.1156C43.7852 23.1156 42.8603 23.2106 41.1245 25.1065C41.1115 25.1208 41.0972 25.1364 41.0822 25.1501C40.4073 25.8036 39.5742 26.6314 38.21 28.2013C37.8566 28.6061 37.591 28.8983 37.3945 29.1112C37.2025 29.3207 37.0215 29.5186 36.9883 29.5824C36.9636 29.6286 36.9239 29.8531 36.8836 30.0712C36.8295 30.3751 36.7534 30.7923 36.6174 31.4048L35.3638 37.0073Z" fill="#ED4E08"/>
<path d="M38.2861 47.6428C38.1188 47.6428 37.9522 47.6018 37.8012 47.5211L29.3948 43.0055C29.156 42.8779 28.9783 42.6606 28.9015 42.4009C28.8227 42.1418 28.852 41.8626 28.9789 41.6244L31.8596 36.279C32.1264 35.7824 32.7454 35.5975 33.2407 35.8637L41.6458 40.3793C42.1411 40.6462 42.3272 41.2645 42.0603 41.7604L39.1849 47.1052C39.0567 47.3434 38.8386 47.5211 38.5796 47.5992C38.4826 47.6285 38.3844 47.6428 38.2861 47.6428ZM31.2608 41.6927L37.8695 45.2425L39.7785 41.6927L33.1724 38.1437L31.2608 41.6927Z" fill="#ED4E08"/>
</svg>
