<svg width="44" height="47" viewBox="0 0 44 47" fill="none" xmlns="http://www.w3.org/2000/svg">
<path d="M16.3167 26.8557L8.38811 31.3926V30.2123H0V45.3187H8.38811V43.2727L18.2828 46.512C20.4518 47.2265 22.8044 47.1546 24.9337 46.3086L41.834 39.5948C43.3015 39.0112 44.0291 37.346 43.446 35.8773C42.9349 34.5854 41.5785 33.8449 40.222 34.1134L38.0134 34.5463C38.2887 34.2449 38.5703 33.9367 38.8457 33.6346C39.9268 32.4221 39.822 30.5664 38.6162 29.4848C37.4043 28.3963 35.5497 28.5012 34.4686 29.7143C32.4175 32.0022 30.1958 34.1333 27.824 36.0869H21.3952C20.7006 36.0869 20.1374 35.5232 20.1374 34.8279C20.1374 34.1333 20.7006 33.5695 21.3952 33.5695H28.3679C30.2157 33.5695 31.7229 32.068 31.7229 30.2123C31.7229 28.3567 30.2157 26.8557 28.3679 26.8557H16.3167ZM16.7626 28.534H28.3679C29.2915 28.534 30.0451 29.2882 30.0451 30.2123C30.0451 31.137 29.2915 31.8906 28.3679 31.8906H21.3952C19.7702 31.8906 18.4596 33.2023 18.4596 34.8279C18.4596 36.4541 19.7702 37.7652 21.3952 37.7652H30.2814L40.5433 35.7594C41.1853 35.6348 41.8142 36.0609 41.932 36.7034C42.0437 37.2604 41.7422 37.8179 41.2113 38.0344L24.3116 44.7482C22.5489 45.4496 20.6025 45.5085 18.8002 44.9187L8.38811 41.5094V33.327L16.7626 28.534ZM36.6048 30.4089C36.6246 30.4089 36.6376 30.4089 36.6569 30.4089C37.3516 30.4089 37.9153 30.9795 37.9153 31.6679C37.9153 31.9824 37.7975 32.2776 37.5941 32.5071C36.8014 33.3989 35.9821 34.2642 35.1367 35.1101L30.4973 36.015C32.3388 34.3888 34.0817 32.6578 35.7203 30.8288C35.9492 30.5795 36.2642 30.422 36.6048 30.4089ZM1.67774 31.8906H6.71037V43.6399H1.67774V31.8906Z" fill="#ED4E08"/>
<path d="M17.8962 0C13.7282 0 10.3467 3.38323 10.3467 7.55292C10.3467 9.4743 11.081 11.3232 12.3916 12.7199C12.3785 12.7261 12.3587 12.7329 12.3457 12.7329C11.8998 12.8706 11.651 13.3358 11.7819 13.7817C11.9066 14.1947 12.3327 14.4503 12.7582 14.3585C13.178 14.2537 13.5973 14.1488 14.0234 14.031C14.3838 14.2474 14.7634 14.4372 15.1566 14.588C14.2195 14.8571 13.2761 15.1064 12.3259 15.3359C11.8805 15.4736 11.6312 15.9388 11.7626 16.3847C11.8867 16.791 12.293 17.0403 12.7123 16.9615C15.3204 16.332 17.8962 15.5716 20.4256 14.6667C24.3505 13.2706 26.4016 8.95642 25.006 5.02244C23.938 2.0126 21.0936 0 17.8962 0ZM17.0571 1.73723V2.72087C15.5499 3.37644 14.8552 5.12046 15.504 6.62878C15.9102 7.55972 16.7624 8.22209 17.7648 8.37904C18.4662 8.49747 18.9444 9.15927 18.8328 9.86073C18.7218 10.5628 18.06 11.041 17.3585 10.9299C17.1556 10.8971 16.9653 10.8183 16.8015 10.7004C16.4151 10.4381 15.8972 10.5429 15.6354 10.9299C15.3929 11.2903 15.4711 11.7821 15.8122 12.0507C16.1788 12.3261 16.6049 12.5034 17.0571 12.5822V13.3686C13.8461 12.9034 11.625 9.92023 12.0901 6.71377C12.4635 4.13739 14.4818 2.11119 17.0571 1.73723ZM18.7348 1.73723C21.9458 2.20298 24.1669 5.18619 23.7017 8.39888C23.3283 10.969 21.31 12.9952 18.7348 13.3686V12.385C20.242 11.7362 20.9366 9.99219 20.2941 8.48387C19.8878 7.54669 19.0362 6.88432 18.0271 6.72057C17.3256 6.60895 16.8474 5.94658 16.959 5.24512C17.0701 4.54365 17.7319 4.05863 18.4334 4.17649C18.6362 4.20935 18.8266 4.28811 18.9903 4.40597C19.3836 4.65528 19.9009 4.54365 20.1502 4.15043C20.3797 3.79629 20.3009 3.32431 19.9734 3.04893C19.6062 2.77979 19.1801 2.60301 18.7348 2.52425V1.73723Z" fill="#ED4E08"/>
<path d="M37.4699 6.09729L38.4065 7.48775C28.5707 14.0831 17.3717 18.365 5.65527 20.0172C6.91315 20.653 7.42423 22.1873 6.78906 23.4458C6.65138 23.7212 6.46779 23.9642 6.23832 24.1739C18.5842 22.4299 30.3793 17.9191 40.7398 10.9758L41.6702 12.3719L43.6165 6.52395L37.4699 6.09729ZM40.6344 7.99884L41.3421 8.05153L41.1325 8.67424C31.4412 15.4537 20.3798 20.0303 8.72857 22.0825C8.71554 21.8003 8.67588 21.5182 8.60392 21.2496C20.1175 19.2172 31.0479 14.6933 40.6344 7.99884Z" fill="#ED4E08"/>
<path d="M5.03264 34.4086C5.03264 33.9496 4.65924 33.5694 4.20029 33.5694C3.7351 33.5626 3.35547 33.9366 3.35547 34.4018V34.4086C3.35547 34.8738 3.72887 35.2477 4.19405 35.2477C4.65244 35.2545 5.03264 34.8806 5.03264 34.4216C5.03264 34.4148 5.03264 34.4086 5.03264 34.4086Z" fill="#ED4E08"/>
</svg>
