<svg width="47" height="50" viewBox="0 0 47 50" fill="none" xmlns="http://www.w3.org/2000/svg">
<path d="M10.4338 23.9482C10.4219 24.1911 10.4141 24.4366 10.4141 24.6835V35.2445C10.4141 42.841 16.5894 48.9999 24.2052 48.9999C31.8222 48.9999 37.9962 42.841 37.9962 35.2445V24.6835C37.9962 24.4366 37.9884 24.1911 37.9765 23.9482" stroke="#ED4E08" stroke-width="2" stroke-miterlimit="10"/>
<path d="M14.4141 34.7721C14.4141 38.0767 16.0593 40.9966 18.5765 42.7638" stroke="#ED4E08" stroke-width="2" stroke-miterlimit="10"/>
<path d="M37.9765 23.9484C37.9765 26.1186 31.8065 27.8766 24.196 27.8766C16.5841 27.8766 10.4141 26.1186 10.4141 23.9484C10.4141 21.7768 16.5841 20.0175 24.196 20.0175C31.8065 20.0175 37.9765 21.7768 37.9765 23.9484Z" stroke="#ED4E08" stroke-width="2" stroke-miterlimit="10"/>
<path d="M33.59 23.9483C33.59 24.7715 29.3843 25.4385 24.1964 25.4385C19.0072 25.4385 14.8027 24.7715 14.8027 23.9483C14.8027 23.1238 19.0072 22.4555 24.1964 22.4555C29.3843 22.4555 33.59 23.1238 33.59 23.9483Z" stroke="#ED4E08" stroke-width="2" stroke-miterlimit="10"/>
<path d="M10.5729 1.33605C10.5729 1.33605 6.36849 4.63145 8.42475 14.0227" stroke="#ED4E08" stroke-width="2" stroke-miterlimit="10" stroke-linecap="round"/>
<path d="M10.6352 1.32042C10.6129 1.32567 10.5932 1.33092 10.5722 1.33617C10.5512 1.34011 10.5289 1.34536 10.5079 1.35061C4.76979 2.68059 1.05514 7.77862 2.21063 12.7362C2.22508 12.7913 2.23821 12.8465 2.25265 12.9003C2.25265 12.9003 6.12487 11.074 8.42404 14.0228C8.42404 14.0228 9.93144 11.3616 12.8307 11.0215C15.5829 10.05 18.1131 11.7738 18.1131 11.7738C18.8721 8.11604 23.154 8.05171 23.154 8.05171C23.1435 7.99525 23.1316 7.94011 23.1185 7.88497C21.9617 2.92873 16.3733 -0.0108761 10.6352 1.32042Z" stroke="#ED4E08" stroke-width="2" stroke-miterlimit="10" stroke-linecap="round"/>
<path d="M10.5723 1.33616C10.5723 1.33616 15.8022 2.44295 18.1132 11.7738" stroke="#ED4E08" stroke-width="2" stroke-miterlimit="10" stroke-linecap="round"/>
<path d="M12.8525 11.1185L15.8017 23.7605" stroke="#ED4E08" stroke-width="2" stroke-miterlimit="10" stroke-linecap="round"/>
<path d="M30.1582 25L33.5892 11.1186L45.6313 0.999991" stroke="#ED4E08" stroke-width="2" stroke-miterlimit="10" stroke-linecap="round"/>
</svg>
