<svg width="260" height="65" viewBox="0 0 260 65" fill="none" xmlns="http://www.w3.org/2000/svg">
<path d="M79.04 25.9706C78.6061 25.2155 77.9375 24.6234 77.1365 24.2846C76.2854 23.9199 75.3679 23.7368 74.4423 23.7469C73.862 23.7469 73.2836 23.8136 72.7185 23.9457C72.167 24.0713 71.6394 24.2853 71.1558 24.5792C70.6803 24.8717 70.2689 25.2578 69.9464 25.7141C69.6054 26.2018 69.3942 26.7686 69.3329 27.361C69.2431 27.7523 69.2581 28.1603 69.3763 28.5439C69.4944 28.9276 69.7116 29.2731 70.0058 29.5456C70.6878 30.106 71.4579 30.5492 72.2847 30.8571C73.2232 31.2256 74.2401 31.5829 75.3356 31.929C76.4026 32.2575 77.4165 32.739 78.3459 33.3584C79.2565 33.9652 79.9937 34.7991 80.4849 35.7782C81.031 37.0409 81.176 38.4416 80.9002 39.7898C80.738 41.1339 80.2963 42.4289 79.6036 43.5913C78.9109 44.7536 77.9827 45.7575 76.8788 46.5379C75.8145 47.292 74.6285 47.8566 73.3728 48.207C72.0723 48.5793 70.7261 48.7666 69.3736 48.7633C67.7013 48.7686 66.0421 48.4679 64.4775 47.876C62.9537 47.2992 61.6411 46.2714 60.7139 44.9292L64.9919 41.2752C65.4786 42.1863 66.2161 42.9381 67.1168 43.4411C68.0426 43.9606 69.0882 44.2274 70.1492 44.2149C70.7439 44.2137 71.3358 44.1331 71.9093 43.9753C72.4968 43.8217 73.0581 43.5809 73.5747 43.261C74.0889 42.945 74.5394 42.5351 74.9027 42.0525C75.2745 41.5575 75.5192 40.9785 75.6154 40.3666C75.7076 39.9445 75.6944 39.5061 75.577 39.0904C75.4597 38.6746 75.2417 38.2943 74.9425 37.9832C74.2778 37.374 73.5047 36.8954 72.6636 36.5723C71.7275 36.189 70.7105 35.8208 69.6127 35.4676C68.5543 35.1405 67.5471 34.6656 66.621 34.0568C65.5799 33.3986 64.7713 32.4295 64.309 31.2861C63.8468 30.1428 63.7543 28.8828 64.0446 27.684C64.2148 26.3403 64.6982 25.0557 65.4559 23.9341C66.1833 22.8879 67.1041 21.9911 68.1686 21.2926C69.2595 20.5828 70.457 20.0532 71.7154 19.7238C72.9815 19.3843 74.2862 19.211 75.5968 19.2082C77.031 19.2005 78.4566 19.4295 79.8165 19.8861C81.1197 20.3131 82.2883 21.0752 83.2056 22.0965L79.04 25.9706Z" fill="#FF7121"/>
<path d="M90.7051 31.6608H90.7821C91.3572 30.7734 92.1312 30.0329 93.0424 29.4984C94.0948 28.9231 95.2633 28.5938 96.4606 28.5351C97.6579 28.4764 98.8529 28.6899 99.9562 29.1594C100.733 29.5362 101.396 30.1121 101.878 30.8285C102.337 31.5471 102.621 32.3633 102.709 33.2119C102.814 34.1492 102.801 35.0961 102.668 36.03L101.003 48.0604H96.2501L97.5994 38.4134C97.6818 37.8269 97.7347 37.2367 97.7579 36.6449C97.7902 36.0255 97.7305 35.4047 97.5808 34.8028C97.4464 34.2513 97.1493 33.7532 96.7282 33.3733C96.2017 32.9559 95.5386 32.7509 94.8689 32.7984C94.1611 32.7811 93.4578 32.9167 92.8069 33.1959C92.2478 33.4469 91.7469 33.812 91.3363 34.2678C90.9228 34.7247 90.5885 35.2477 90.3474 35.8153C90.0925 36.4015 89.9254 37.0222 89.8516 37.6574L88.4252 48.0604H83.6514L87.8524 18.0315H92.6024L90.7051 31.6608Z" fill="#FF7121"/>
<path d="M104.185 38.5129C104.376 37.0651 104.848 35.6687 105.574 34.402C106.264 33.1991 107.163 32.1299 108.23 31.2448C109.297 30.365 110.51 29.6805 111.814 29.2226C113.143 28.746 114.545 28.5043 115.956 28.5083C117.295 28.4922 118.624 28.7347 119.871 29.2226C121.007 29.6622 122.03 30.3535 122.862 31.2448C123.683 32.1484 124.287 33.2284 124.627 34.402C125.002 35.739 125.082 37.1417 124.862 38.5129C124.673 39.9608 124.202 41.3574 123.477 42.6239C122.789 43.8227 121.897 44.8912 120.841 45.781C119.782 46.6628 118.575 47.3477 117.276 47.8033C115.948 48.2797 114.548 48.5214 113.137 48.5176C111.795 48.531 110.463 48.2886 109.212 47.8033C108.068 47.3673 107.038 46.6757 106.201 45.781C105.379 44.8784 104.775 43.7981 104.437 42.6239C104.057 41.288 103.972 39.8852 104.187 38.5129H104.185ZM108.941 38.5129C108.832 39.2262 108.86 39.9536 109.021 40.6567C109.166 41.3258 109.456 41.9548 109.87 42.4988C110.293 43.0393 110.835 43.4742 111.454 43.7695C112.168 44.1004 112.947 44.2631 113.733 44.2451C114.563 44.2529 115.386 44.0911 116.152 43.7695C117.583 43.1659 118.749 42.0663 119.438 40.6718C119.778 39.9987 120.006 39.2747 120.114 38.528C120.218 37.8145 120.191 37.0879 120.033 36.3842C119.889 35.7144 119.598 35.0851 119.181 34.5422C118.759 34.001 118.216 33.566 117.597 33.2715C116.884 32.9406 116.104 32.7779 115.318 32.7959C114.495 32.7865 113.679 32.9484 112.921 33.2715C112.211 33.5775 111.56 34.0077 110.999 34.5422C110.446 35.0763 109.985 35.6988 109.636 36.3842C109.287 37.0498 109.052 37.7694 108.941 38.5129Z" fill="#FF7121"/>
<path d="M129.37 28.9829H133.886L133.489 31.841H133.566C134.357 30.7212 135.44 29.8419 136.697 29.2997C137.924 28.7753 139.245 28.5057 140.579 28.5073C141.894 28.4791 143.2 28.7433 144.401 29.2811C145.448 29.7571 146.361 30.4861 147.057 31.4027C147.749 32.3461 148.222 33.4322 148.443 34.582C148.695 35.8774 148.729 37.2062 148.542 38.5128C148.341 39.8796 147.927 41.2061 147.314 42.4437C146.729 43.6281 145.944 44.7023 144.994 45.6185C144.063 46.5182 142.976 47.2399 141.786 47.7481C140.578 48.265 139.277 48.5283 137.964 48.5219C137.176 48.5355 136.389 48.4427 135.626 48.2459C135.023 48.0852 134.443 47.8451 133.902 47.5316C133.46 47.276 133.053 46.9627 132.693 46.5999C132.4 46.2992 132.136 45.9725 131.902 45.6239H131.781L130.156 57.1023H125.408L129.37 28.9829ZM143.789 38.5128C143.897 37.7997 143.871 37.0726 143.712 36.369C143.566 35.6997 143.275 35.0708 142.86 34.527C142.437 33.9858 141.895 33.5507 141.276 33.2563C140.562 32.9254 139.783 32.7627 138.997 32.7807C138.174 32.771 137.358 32.9326 136.6 33.2554C135.889 33.5614 135.238 33.9916 134.678 34.5261C134.123 35.0592 133.661 35.6818 133.311 36.3682C132.96 37.038 132.727 37.7631 132.62 38.5119C132.513 39.2251 132.539 39.9522 132.697 40.6557C132.843 41.325 133.134 41.954 133.55 42.4978C133.972 43.039 134.515 43.474 135.134 43.7685C135.847 44.0994 136.627 44.2621 137.413 44.2441C138.242 44.2522 139.063 44.0904 139.827 43.7685C141.267 43.17 142.442 42.0697 143.135 40.6708C143.469 39.992 143.69 39.2631 143.789 38.5128Z" fill="#FF7121"/>
<path d="M48.0952 33.2662V33.2653C48.0952 31.1365 46.3733 29.4108 44.2492 29.4108H42.2633C40.1392 29.4108 38.4173 31.1365 38.4173 33.2653V33.2662C38.4173 35.395 40.1392 37.1208 42.2633 37.1208H44.2492C46.3733 37.1208 48.0952 35.395 48.0952 33.2662Z" fill="#FF7121"/>
<path d="M36.5144 32.9796C36.5161 32.9613 36.5161 32.9429 36.5144 32.9246C36.5109 32.8219 36.5 32.7196 36.4816 32.6185C36.4799 32.5916 36.4799 32.5646 36.4816 32.5377C36.463 32.449 36.4488 32.3683 36.4267 32.284L36.3824 32.1251L36.3497 32.0257C36.1555 31.4141 35.8094 30.8619 35.3438 30.4211C34.8783 29.9803 34.3086 29.6653 33.6883 29.5057H33.644L33.4749 29.4649L33.2323 29.4241H33.1296C33.0304 29.4241 32.9348 29.4055 32.8357 29.4019H2.11353L0.929789 30.7684C0.271146 31.5303 -0.0599084 32.5224 0.00893543 33.5281C0.0777793 34.5338 0.540928 35.4713 1.29722 36.1358L1.3707 36.2024C1.75931 36.5404 2.21266 36.7955 2.70301 36.9518C3.19336 37.1082 3.71039 37.1627 4.22246 37.1119H24.214L5.8657 58.241C5.19789 59.012 4.86169 60.0166 4.93054 61.0352C4.99938 62.0539 5.46767 63.0039 6.23312 63.6776C7.00308 64.3474 8.00622 64.6846 9.02343 64.6156C10.0406 64.5466 10.9893 64.077 11.6622 63.3094L35.5528 35.7889C35.7675 35.5395 35.949 35.2633 36.0929 34.9672C36.0929 34.9672 36.1115 34.9344 36.1186 34.9193C36.1513 34.8457 36.185 34.7756 36.2142 34.7019C36.2434 34.6283 36.2549 34.5955 36.2726 34.5395L36.3169 34.4144C36.3426 34.3257 36.3683 34.237 36.3868 34.1482L36.409 34.0675C36.419 33.9658 36.4361 33.865 36.4603 33.7658C36.4584 33.7463 36.4584 33.7267 36.4603 33.7072C36.4568 33.6012 36.4643 33.495 36.4825 33.3905V33.2618C36.5054 33.1695 36.5161 33.0747 36.5144 32.9796Z" fill="#FF7121"/>
<path d="M32.0778 6.36939C32.7375 5.60734 33.0693 4.61443 33.0004 3.60788C32.9316 2.60133 32.4677 1.66308 31.7104 0.998405L31.6369 0.931851C30.8767 0.271748 29.8868 -0.0600412 28.8833 0.00895524C27.8799 0.0779517 26.9444 0.542127 26.2813 1.30009L5.61426 25.2437H15.8137L32.0778 6.36939Z" fill="#FF7121"/>
<path d="M158.773 24.4559H150.176L150.801 19.9306H172.986L172.351 24.4559H163.763L160.477 48.0313H155.482L158.773 24.4559Z" fill="#FF7121"/>
<path d="M171.056 28.983H175.793L175.36 31.9999H175.437C176.082 30.9293 176.989 30.0417 178.072 29.4213C179.14 28.8114 180.35 28.496 181.578 28.5073C181.857 28.5061 182.135 28.532 182.409 28.5845C182.674 28.6396 182.952 28.7026 183.243 28.7833L182.57 33.3876C182.203 33.2847 181.835 33.196 181.468 33.1294C181.104 33.0641 180.735 33.0308 180.365 33.0301C179.403 32.9963 178.449 33.2079 177.591 33.645C176.922 34.0015 176.325 34.48 175.831 35.0558C175.429 35.5264 175.113 36.0637 174.896 36.6433C174.749 37.0287 174.643 37.4288 174.58 37.8367L173.154 48.041H168.402L171.056 28.983Z" fill="#FF7121"/>
<path d="M196.054 45.4259H195.936C195.169 46.4477 194.158 47.2597 192.995 47.7871C191.864 48.2793 190.642 48.5301 189.408 48.5236C188.557 48.5235 187.71 48.3995 186.894 48.1554C186.135 47.9439 185.427 47.5792 184.813 47.0835C184.234 46.607 183.787 45.9908 183.511 45.2928C183.212 44.4949 183.131 43.6314 183.276 42.7915C183.407 41.4201 184.008 40.1366 184.978 39.1596C185.919 38.2632 187.04 37.5786 188.267 37.1516C189.564 36.6965 190.917 36.4166 192.288 36.3193C193.699 36.2134 195.001 36.1608 196.192 36.1614H197.379L197.42 35.6458C197.544 35.1654 197.532 34.6597 197.384 34.1858C197.237 33.712 196.96 33.2889 196.586 32.9643C195.714 32.3293 194.651 32.0158 193.575 32.077C192.587 32.0732 191.606 32.2538 190.683 32.6094C189.788 32.9494 188.958 33.4404 188.228 34.061L186.085 31.5712C187.238 30.5048 188.611 29.7051 190.107 29.2287C191.559 28.7576 193.075 28.5166 194.602 28.5144C195.735 28.4839 196.865 28.637 197.95 28.9678C198.733 29.2155 199.46 29.6146 200.089 30.1426C200.61 30.585 201.012 31.1512 201.258 31.7895C201.493 32.3939 201.641 33.0293 201.695 33.6759C201.752 34.2887 201.752 34.9053 201.695 35.518C201.629 36.1152 201.567 36.6228 201.518 37.0868L200.013 48.0453H195.701L196.054 45.4259ZM196.609 39.5066H195.62C194.958 39.5066 194.212 39.5359 193.382 39.5873C192.579 39.6353 191.783 39.7586 191.003 39.9556C190.303 40.13 189.638 40.4267 189.041 40.8322C188.772 41.0145 188.544 41.252 188.374 41.5288C188.204 41.8057 188.094 42.1157 188.052 42.4383C187.988 42.8225 188.043 43.217 188.21 43.5688C188.37 43.8773 188.601 44.1436 188.883 44.3461C189.182 44.5599 189.519 44.7139 189.875 44.7995C190.252 44.8951 190.638 44.9422 191.026 44.9397C192.396 45.028 193.75 44.6114 194.834 43.7684C195.754 42.9444 196.334 41.8048 196.458 40.574L196.609 39.5066Z" fill="#FF7121"/>
<path d="M220.539 45.1837H220.457C219.651 46.2955 218.563 47.1725 217.307 47.725C216.087 48.2511 214.773 48.5208 213.444 48.5174C212.123 48.5499 210.81 48.2855 209.604 47.7436C208.559 47.2608 207.647 46.5298 206.948 45.6141C206.241 44.6756 205.753 43.5909 205.518 42.4392C205.253 41.1446 205.227 39.8124 205.441 38.5083C205.615 37.136 206.029 35.8053 206.665 34.5775C207.272 33.3961 208.068 32.3222 209.021 31.3982C209.955 30.5016 211.043 29.7827 212.233 29.2766C213.441 28.759 214.742 28.4957 216.055 28.5028C216.843 28.4894 217.629 28.5822 218.393 28.7788C218.99 28.9373 219.563 29.1776 220.094 29.4931C220.529 29.7525 220.929 30.0655 221.285 30.4248C221.577 30.7262 221.842 31.0528 222.076 31.4008H222.197L224.101 18.0288H228.853L224.674 48.0391H220.139L220.539 45.1837ZM210.196 38.5128C210.092 39.2263 210.119 39.9529 210.277 40.6565C210.421 41.3264 210.712 41.9557 211.129 42.4986C211.552 43.0398 212.094 43.4748 212.713 43.7693C213.427 44.1002 214.206 44.2629 214.992 44.2449C215.821 44.2531 216.642 44.0912 217.406 43.7693C218.124 43.4663 218.782 43.0358 219.347 42.4986C219.9 41.968 220.357 41.3446 220.696 40.6565C221.034 39.9826 221.261 39.2588 221.369 38.5128C221.477 37.7996 221.451 37.0726 221.292 36.369C221.145 35.7002 220.854 35.0716 220.44 34.5269C220.017 33.9864 219.475 33.5515 218.856 33.2562C218.142 32.9253 217.363 32.7626 216.577 32.7806C215.754 32.7708 214.938 32.9328 214.18 33.2562C213.469 33.5623 212.819 33.9925 212.258 34.5269C211.703 35.06 211.241 35.6826 210.891 36.369C210.54 37.0392 210.305 37.764 210.196 38.5128Z" fill="#FF7121"/>
<path d="M234.922 40.1819C234.883 40.8304 234.983 41.4798 235.216 42.0861C235.424 42.6174 235.742 43.0983 236.149 43.497C236.559 43.8875 237.044 44.1895 237.575 44.3843C238.163 44.6048 238.786 44.7134 239.414 44.7046C240.496 44.7295 241.566 44.476 242.523 43.9682C243.401 43.483 244.196 42.8612 244.879 42.1261L247.93 44.7046C246.787 45.9767 245.381 46.9825 243.809 47.6515C242.4 48.2248 240.894 48.5213 239.373 48.5246C238.025 48.5403 236.686 48.2978 235.429 47.8103C234.282 47.3848 233.251 46.694 232.42 45.7941C231.59 44.8941 230.983 43.8104 230.648 42.631C230.274 41.2939 230.193 39.8912 230.413 38.52C230.602 37.072 231.073 35.6753 231.798 34.409C232.49 33.2069 233.389 32.1378 234.455 31.2519C235.523 30.3728 236.737 29.6884 238.042 29.2297C239.37 28.7528 240.77 28.5111 242.18 28.5153C243.331 28.4411 244.482 28.6457 245.537 29.1119C246.592 29.578 247.52 30.2919 248.241 31.1933C249.614 32.9786 250.077 35.54 249.631 38.8776L249.432 40.189L234.922 40.1819ZM245.181 36.6051C245.302 36.0256 245.291 35.426 245.147 34.8517C245.003 34.2773 244.73 33.7433 244.35 33.2901C243.908 32.8599 243.379 32.5295 242.799 32.3211C242.218 32.1126 241.6 32.0309 240.986 32.0815C239.687 32.0359 238.416 32.4744 237.421 33.3122C236.439 34.1806 235.748 35.33 235.439 36.6051H245.181Z" fill="#FF7121"/>
<circle cx="253.988" cy="24.0475" r="5.66162" stroke="#FF7121" stroke-width="0.7"/>
<path d="M252.201 21.2486H254.322C254.757 21.2486 255.131 21.3137 255.443 21.4439C255.758 21.5741 256.001 21.7669 256.17 22.0221C256.339 22.2773 256.424 22.5911 256.424 22.9635C256.424 23.2682 256.372 23.5299 256.268 23.7486C256.166 23.9648 256.021 24.1458 255.834 24.2916C255.649 24.4348 255.432 24.5494 255.182 24.6353L254.811 24.8307H252.967L252.959 23.9166H254.33C254.536 23.9166 254.706 23.8801 254.842 23.8072C254.977 23.7343 255.079 23.6327 255.146 23.5025C255.217 23.3723 255.252 23.2213 255.252 23.0494C255.252 22.8671 255.218 22.7096 255.15 22.5768C255.083 22.4439 254.98 22.3424 254.842 22.2721C254.704 22.2018 254.531 22.1666 254.322 22.1666H253.373V26.9361H252.201V21.2486ZM255.381 26.9361L254.084 24.401L255.322 24.3932L256.635 26.8814V26.9361H255.381Z" fill="#FF7121"/>
</svg>
