<svg width="43" height="49" viewBox="0 0 43 49" fill="none" xmlns="http://www.w3.org/2000/svg">
<path d="M21.5 0C20.9833 0 20.4653 0.170548 20.0447 0.51038L17.4826 2.58854C17.3108 2.72371 17.091 2.78309 16.875 2.74772L13.6144 2.23355C12.5405 2.06553 11.4857 2.67192 11.094 3.68131L9.91285 6.76254C9.83452 6.96341 9.67155 7.12638 9.47068 7.2047L6.38819 8.38464C5.37501 8.77501 4.76356 9.8324 4.93537 10.9012L5.44954 14.1567C5.48239 14.369 5.42554 14.5913 5.28784 14.7631L3.20968 17.3214C2.52623 18.1653 2.52623 19.3844 3.20968 20.2282L5.28784 22.7877C5.42554 22.9583 5.48618 23.1781 5.44954 23.3941L4.93537 26.6497C4.76356 27.7185 5.37501 28.7759 6.38819 29.1662L6.9352 29.3734L0.103181 41.193C-0.0383101 41.4368 -0.0332569 41.7337 0.112025 41.975C0.253516 42.215 0.520076 42.3591 0.796743 42.3464L7.57318 42.1089L10.758 48.0882C10.8907 48.3383 11.1458 48.4912 11.4225 48.4975H11.4377C11.7105 48.4975 11.967 48.3497 12.1047 48.1122L18.9974 36.1928L20.0447 37.043C20.4679 37.3828 20.9833 37.5509 21.5 37.5509C22.0142 37.5509 22.5321 37.3828 22.9528 37.0405L24.0026 36.1928L30.8953 48.1122C31.0305 48.3535 31.2857 48.4975 31.5598 48.4975H31.575C31.8542 48.4937 32.1093 48.3383 32.242 48.0882L35.4243 42.1127L42.2033 42.3464C42.4799 42.3502 42.744 42.215 42.888 41.975C43.0333 41.7337 43.0383 41.4368 42.8968 41.193L36.0648 29.3734L36.6118 29.1662C37.625 28.7759 38.2364 27.7185 38.0672 26.6497L37.5505 23.3941C37.5176 23.1806 37.5745 22.9583 37.7122 22.7877L39.7903 20.2282C40.4738 19.3844 40.4738 18.1653 39.7903 17.3214L37.7122 14.7631C37.5745 14.5913 37.5138 14.3728 37.5505 14.1567L38.0672 10.9012C38.2364 9.8324 37.625 8.77501 36.6118 8.38464L33.5293 7.2047C33.3284 7.12638 33.1655 6.96341 33.0872 6.76254L31.906 3.68131C31.5143 2.67192 30.4595 2.06553 29.3856 2.23355L26.125 2.74772C25.9115 2.78309 25.6892 2.72371 25.5174 2.58854L22.9553 0.51038C22.5321 0.170548 22.0167 0 21.5 0ZM21.5 1.53746C21.6718 1.53746 21.8461 1.59431 21.9839 1.70548L24.5522 3.78364C25.0575 4.19169 25.7195 4.37234 26.3663 4.27001L29.6295 3.75332C29.9832 3.69647 30.3356 3.90113 30.4645 4.23717L31.6495 7.31461C31.8845 7.92479 32.3683 8.40864 32.976 8.63983L36.0585 9.8223C36.3983 9.95242 36.603 10.3036 36.5461 10.6611L36.0282 13.9192C35.9258 14.5623 36.104 15.223 36.5158 15.7296L38.594 18.2916C38.8188 18.5708 38.8188 18.9788 38.594 19.2593L36.5133 21.8238C36.104 22.3304 35.9233 22.9911 36.0282 23.6367L36.5461 26.8923C36.6004 27.2498 36.3983 27.601 36.0585 27.7311L32.976 28.911C32.3683 29.1447 31.8819 29.6286 31.6495 30.2375L30.4645 33.3162C30.3356 33.6523 29.9832 33.8594 29.6295 33.8001L26.3663 33.2834C25.7195 33.181 25.0575 33.3579 24.5522 33.7698L21.9839 35.8454C21.7047 36.0728 21.2953 36.0728 21.0161 35.8454L18.4478 33.7698C18.036 33.4337 17.518 33.2531 16.9925 33.2531C16.875 33.2531 16.755 33.2657 16.6337 33.2834L13.3705 33.8001C13.0168 33.8594 12.6644 33.6523 12.5355 33.3137L11.3505 30.235C11.1155 29.6286 10.6317 29.1447 10.024 28.911L6.94152 27.7273C6.60169 27.5984 6.39703 27.2472 6.45388 26.8923L6.97184 23.6342C7.07417 22.9886 6.89604 22.3279 6.4842 21.8238L4.40604 19.2593C4.18117 18.9788 4.18117 18.5708 4.40604 18.2916L6.48673 15.727C6.89604 15.223 7.0767 14.5623 6.97184 13.9167L6.45388 10.6574C6.39956 10.3036 6.60169 9.95242 6.94152 9.8223L10.024 8.63983C10.6317 8.40864 11.1181 7.92227 11.3505 7.31461L12.5355 4.23464C12.6644 3.89734 13.0168 3.69647 13.3705 3.75332L16.6337 4.27001C17.2805 4.37234 17.9425 4.19169 18.4478 3.78364L21.0161 1.70548C21.1576 1.59431 21.3282 1.53746 21.5 1.53746ZM21.5 6.4745C14.7097 6.4745 9.18138 11.9939 9.18138 18.7754C9.18138 19.0331 9.19149 19.2921 9.20539 19.5435C9.22939 19.9528 9.56922 20.2649 9.97222 20.2649C9.98738 20.2649 10.0063 20.2674 10.0215 20.2649C10.4447 20.2371 10.7694 19.8745 10.7428 19.4513C10.7277 19.229 10.7214 19.0028 10.7214 18.7754C10.7214 12.8416 15.5574 8.01196 21.5 8.01196C21.8007 8.01196 22.0988 8.0246 22.3932 8.0486C22.8176 8.08144 23.1903 7.76814 23.2257 7.34872C23.2623 6.92425 22.9465 6.55283 22.522 6.51619C22.186 6.48966 21.8424 6.4745 21.5 6.4745ZM26.2008 7.46242C25.9001 7.4561 25.6146 7.62791 25.482 7.91848C25.3102 8.30632 25.4845 8.76237 25.8723 8.93419C26.5255 9.22475 27.1508 9.57974 27.7345 9.99411C27.8696 10.0901 28.0263 10.1381 28.1792 10.1381C28.4205 10.1381 28.658 10.0244 28.8083 9.81345C29.0546 9.46604 28.9738 8.98472 28.6238 8.74216C27.9593 8.26715 27.2443 7.8591 26.4977 7.52811C26.4017 7.48642 26.2993 7.46495 26.2008 7.46242ZM30.2118 10.3845C30.0173 10.3718 29.8152 10.435 29.656 10.5765C29.3376 10.8557 29.3073 11.3421 29.5865 11.6604C31.3223 13.6249 32.2786 16.154 32.2786 18.7754C32.2786 20.5201 31.8516 22.2533 31.0418 23.7845C30.8435 24.1597 30.9888 24.6259 31.364 24.8229C31.4789 24.8836 31.6015 24.9139 31.7215 24.9139C31.9982 24.9139 32.266 24.7636 32.405 24.5021C33.3284 22.7486 33.8186 20.7689 33.8186 18.7754C33.8186 15.7776 32.7258 12.8922 30.745 10.6422C30.6035 10.483 30.4102 10.3958 30.2118 10.3845ZM22.234 12.6243C22.095 12.6332 21.9598 12.6761 21.8424 12.7545L19.533 14.2919C19.178 14.5256 19.0845 15.0032 19.322 15.3582C19.557 15.7094 20.032 15.8079 20.3908 15.5704L21.5 14.8326V22.6197H19.96C19.5368 22.6197 19.1907 22.9646 19.1907 23.3878C19.1907 23.811 19.5368 24.1572 19.96 24.1572H24.58C25.0032 24.1572 25.3493 23.811 25.3493 23.3878C25.3493 22.9646 25.0032 22.6197 24.58 22.6197H23.04V13.3937C23.04 13.1107 22.8833 12.8505 22.6332 12.7153C22.5107 12.6483 22.3717 12.6193 22.234 12.6243ZM12.1767 23C12.0782 22.9974 11.9733 23.0151 11.876 23.0543L10.4485 23.6316C10.0543 23.7908 9.86484 24.238 10.024 24.6347C10.144 24.9316 10.4333 25.1148 10.7365 25.1148C10.8325 25.1148 10.9323 25.0971 11.0258 25.0579L12.4534 24.4806C12.8475 24.3214 13.037 23.8742 12.8779 23.4813C12.7578 23.1869 12.4774 23.0063 12.1767 23ZM14.198 26.0673C13.9997 26.0673 13.8039 26.1418 13.6535 26.2922L12.5646 27.3786C12.2639 27.6793 12.2639 28.1657 12.5646 28.4663C12.7149 28.6167 12.9107 28.6912 13.109 28.6912C13.3074 28.6912 13.5032 28.6167 13.6535 28.4663L14.7425 27.3786C15.0432 27.0792 15.0432 26.5928 14.7425 26.2922C14.5922 26.1418 14.3938 26.0673 14.198 26.0673ZM27.262 26.0673C27.0662 26.0673 26.8678 26.1418 26.7175 26.2922C26.4168 26.5928 26.4168 27.0792 26.7175 27.3786L27.8065 28.4663C27.9568 28.6167 28.1526 28.6912 28.351 28.6912C28.5493 28.6912 28.7451 28.6167 28.8955 28.4663C29.1961 28.1657 29.1961 27.6793 28.8955 27.3786L27.8065 26.2922C27.6561 26.1418 27.4578 26.0673 27.262 26.0673ZM17.1213 28.0368C16.8232 28.0343 16.5352 28.2112 16.4114 28.5055L15.81 29.9204C15.6445 30.3108 15.8277 30.7605 16.2193 30.9286C16.3179 30.9677 16.4177 30.9892 16.52 30.9892C16.8181 30.9892 17.1037 30.8149 17.23 30.5205L17.8313 29.1056C17.9968 28.7127 17.8124 28.2617 17.422 28.0975C17.3222 28.0545 17.2237 28.0368 17.1213 28.0368ZM24.2035 28.0975C24.105 28.0975 23.9988 28.1114 23.9028 28.1543C23.5061 28.3097 23.3167 28.7607 23.4758 29.1536L24.0532 30.5799C24.1732 30.878 24.4625 31.0612 24.7695 31.0612C24.8655 31.0612 24.9615 31.0435 25.0575 31.0044C25.4517 30.8452 25.6412 30.3967 25.482 30.0038L24.9046 28.5775C24.7846 28.2832 24.5042 28.1025 24.2035 28.0975ZM20.7306 28.7695C20.3062 28.7695 19.96 29.1144 19.96 29.5389V31.0764C19.96 31.4996 20.3062 31.8445 20.7306 31.8445C21.1539 31.8445 21.5 31.4996 21.5 31.0764V29.5389C21.5 29.1144 21.1539 28.7695 20.7306 28.7695ZM8.39055 29.9343L9.47068 30.3462C9.67155 30.4245 9.83452 30.5862 9.91285 30.7883L11.094 33.8658C11.4857 34.8777 12.5405 35.4879 13.6144 35.3161L16.875 34.8031C17.091 34.7703 17.3108 34.8272 17.4826 34.9649L17.7858 35.2112L11.468 46.1427L8.71017 40.9618C8.5712 40.7041 8.29201 40.5386 8.00271 40.5538L2.13207 40.761L8.39055 29.9343ZM34.6095 29.9343L40.8679 40.761L34.9973 40.5538C34.7118 40.5424 34.4288 40.7041 34.2898 40.9618L31.532 46.1427L25.2142 35.2112L25.5174 34.9649C25.6892 34.8272 25.9115 34.7703 26.125 34.8031L29.3856 35.3161C30.4595 35.4879 31.5143 34.8777 31.906 33.8658L33.0872 30.7883C33.1655 30.5862 33.3284 30.4245 33.5293 30.3462L34.6095 29.9343Z" fill="#ED4E08"/>
</svg>
