<svg width="62" height="57" viewBox="0 0 62 57" fill="none" xmlns="http://www.w3.org/2000/svg">
<path d="M18.7127 42.3339L18.7128 42.3338L27.3041 33.0758C27.4368 33.1098 27.5699 33.1559 27.7039 33.2146C28.3987 33.5215 29.0656 34.1376 29.6794 34.9528L20.9296 44.3808L20.9282 44.3823C20.6328 44.702 20.2299 44.8643 19.8212 44.8643C19.4513 44.8643 19.085 44.7317 18.7954 44.4634L18.795 44.4631C18.1819 43.8958 18.1466 42.9439 18.7127 42.3339Z" stroke="#ED4E08" stroke-width="2"/>
<path d="M43.9244 18.834C44.0714 18.5755 44.2188 18.3216 44.3666 18.073L44.5222 18.2582C44.3251 18.4456 44.1253 18.6377 43.9244 18.834ZM40.5024 25.7528C40.9553 24.727 41.4234 23.7077 41.9024 22.7152L42.5922 22.7044L45.7771 22.6543H45.7772H45.7773H45.7774H45.7774H45.7775H45.7776H45.7777H45.7777H45.7778H45.7779H45.778H45.7781H45.7781H45.7782H45.7783H45.7784H45.7785H45.7785H45.7786H45.7787H45.7788H45.7789H45.7789H45.779H45.7791H45.7792H45.7793H45.7793H45.7794H45.7795H45.7796H45.7796H45.7797H45.7798H45.7799H45.78H45.78H45.7801H45.7802H45.7803H45.7804H45.7804H45.7805H45.7806H45.7807H45.7808H45.7808H45.7809H45.781H45.7811H45.7812H45.7812H45.7813H45.7814H45.7815H45.7816H45.7816H45.7817H45.7818H45.7819H45.782H45.782H45.7821H45.7822H45.7823H45.7824H45.7824H45.7825H45.7826H45.7827H45.7828H45.7828H45.7829H45.783H45.7831H45.7832H45.7832H45.7833H45.7834H45.7835H45.7836H45.7836H45.7837H45.7838H45.7839H45.784H45.784H45.7841H45.7842H45.7843H45.7844H45.7844H45.7845H45.7846H45.7847H45.7848H45.7848H45.7849H45.785H45.7851H45.7852H45.7852H45.7853H45.7854H45.7855H45.7856H45.7856H45.7857H45.7858H45.7859H45.786H45.786H45.7861H45.7862H45.7863H45.7864H45.7864H45.7865H45.7866H45.7867H45.7868H45.7868H45.7869H45.787H45.7871H45.7872H45.7873H45.7873H45.7874H45.7875H45.7876H45.7877H45.7877H45.7878H45.7879H45.788H45.7881H45.7881H45.7882H45.7883H45.7884H45.7885H45.7885H45.7886H45.7887H45.7888H45.7889H45.7889H45.789H45.7891H45.7892H45.7893H45.7893H45.7894H45.7895H45.7896H45.7897H45.7898H45.7898H45.7899H45.79H45.7901H45.7902H45.7902H45.7903H45.7904H45.7905H45.7906H45.7906H45.7907H45.7908H45.7909H45.791H45.791H45.7911H45.7912H45.7913H45.7914H45.7914H45.7915H45.7916H45.7917H45.7918H45.7918H45.7919H45.792H45.7921H45.7922H45.7923H45.7923H45.7924H45.7925H45.7926H45.7927H45.7927H45.7928H45.7929H45.793H45.7931H45.7931H45.7932H45.7933H45.7934H45.7935H45.7935H45.7936H45.7937H45.7938H45.7939H45.7939H45.794H45.7941H45.7942H45.7943H45.7943H45.7944H45.7945H45.7946H45.7947H45.7947H45.7948H45.7949H45.795H45.7951H45.7952H45.7952H45.7953H45.7954H45.7955H45.7956H45.7956H45.7957H45.7958H45.7959H45.796H45.796H45.7961H45.7962H45.7963H45.7964H45.7964H45.7965H45.7966H45.7967H45.7968H45.7968H45.7969H45.797H45.7971H45.7972H45.7972H45.7973H45.7974H45.7975H45.7976H45.7976H45.7977H45.7978H45.7979H45.798H45.798H45.7981H45.7982H45.7983H45.7984H45.7984H45.7985H45.7986H45.7987H45.7988H45.7988H45.7989H45.799H45.7991H45.7992H45.7992H45.7993H45.7994H45.7995H45.7996H45.7996H45.7997H45.7998H45.7999H45.8H45.8H45.8001H45.8002H45.8003H45.8004H45.8004H45.8005H45.8006H45.8007H45.8007H45.8008H45.8009H45.801H45.8011H45.8011H45.8012H45.8013H45.8014H45.8015H45.8015H45.8016H45.8017H45.8018H45.8019H45.8019H45.802H45.8021H45.8022H45.8023H45.8023H45.8024H45.8025H45.8026H45.8027H45.8027H45.8028H45.8029H45.803H45.803H45.8031H45.8032H45.8033H45.8034H45.8034H45.8035H45.8036H45.8037H45.8038H45.8038H45.8039H45.804H45.8041H45.8041H45.8042H45.8043H45.8044H45.8045H45.8045H45.8046H45.8047H45.8048H45.8049H45.8049H45.805H45.8051H45.8052H45.8052H45.8053H45.8054H45.8055H45.8056H45.8056H45.8057H45.8058H45.8059H45.8059H45.806H45.8061H45.8062H45.8063H45.8063H45.8064H45.8065H45.8066H45.8066H45.8067H45.8068H45.8069H45.807H45.807H45.8071H45.8072H45.8073H45.8073H45.8074H45.8075H45.8076H45.8077H45.8077H45.8078H45.8079H45.808H45.808H45.8081H45.8082H45.8083H45.8083H45.8084H45.8085H45.8086H45.8087H45.8087H45.8088H45.8089H45.809H45.809H45.8091H45.8092H45.8093H45.8093H45.8094H45.8095H45.8096H45.8097H45.8097H45.8098H45.8099H45.81H45.81H45.8101H45.8102H45.8103H45.8103H45.8104H45.8105H45.8106H45.8106C46.3826 22.6543 46.9054 22.9763 47.1612 23.4869L47.1615 23.4875C47.4208 24.0041 47.36 24.6248 47.0057 25.0825C47.0056 25.0826 47.0056 25.0826 47.0055 25.0827L40.4985 33.4813L40.4982 33.4816C40.2019 33.8645 39.7559 34.0671 39.3018 34.0671C38.9802 34.0671 38.6555 33.9647 38.3772 33.7505C37.9227 33.3986 37.7242 32.837 37.8172 32.3017C37.8867 32.1209 37.9571 31.9388 38.0283 31.756C38.0555 31.7115 38.0828 31.6711 38.1111 31.6339L41.4203 27.3634L42.6949 25.7186L40.6142 25.751L40.5024 25.7528Z" stroke="#ED4E08" stroke-width="2"/>
<path d="M59.962 1.17967L59.9623 1.1794C60.197 0.94229 60.5828 0.939876 60.8207 1.17419C61.0586 1.41013 61.0598 1.79351 60.8262 2.02984C60.8262 2.02986 60.8261 2.02988 60.8261 2.02989C60.8261 2.02997 60.826 2.03004 60.8259 2.03011L56.2435 6.65663C56.1407 6.22116 55.9892 5.79651 55.7902 5.39169L59.962 1.17967Z" stroke="#ED4E08" stroke-width="2"/>
<path d="M48.9632 14.0065L48.7648 13.7705C48.8786 13.8034 48.9934 13.833 49.1092 13.859L48.9632 14.0065Z" stroke="#ED4E08" stroke-width="2"/>
<path d="M46.5074 14.9095L49.2179 18.134L49.9024 18.9483L50.6729 18.2149L55.1913 13.9134L55.1914 13.9134C55.435 13.6814 55.8198 13.6912 56.0506 13.9331C56.2808 14.1742 56.2725 14.5564 56.0305 14.7878C56.0304 14.7879 56.0302 14.788 56.0301 14.7882L50.2723 20.2691C50.1579 20.3779 50.0077 20.4373 49.8538 20.4373C49.8545 20.4373 49.8549 20.4373 49.8549 20.4373C49.8549 20.4373 49.8534 20.4373 49.8497 20.4372L49.8202 20.4356L49.8194 20.4356C49.6526 20.4264 49.4963 20.3484 49.3882 20.2203C49.3881 20.2201 49.388 20.22 49.3879 20.2199L45.7619 15.906C46.0121 15.5512 46.2608 15.2185 46.5074 14.9095Z" stroke="#ED4E08" stroke-width="2"/>
<path d="M45.7434 11.7475C45.7602 11.7686 45.7771 11.7895 45.7943 11.8104C44.4709 13.1047 43.1871 14.9324 41.9827 16.9782C40.514 19.4732 39.11 22.3867 37.8539 25.2717C36.0388 29.4405 34.5156 33.5885 33.5363 36.401C33.2876 35.8682 33.0029 35.3138 32.6816 34.7679C31.7738 33.2259 30.4856 31.5989 28.7541 30.8356C28.0984 30.5456 27.4139 30.3957 26.7112 30.3957C25.8291 30.3957 24.9593 30.6315 24.1184 31.0632L24.118 31.0634C22.9841 31.6462 22.0665 31.668 21.295 31.3213L45.7434 11.7475ZM45.7434 11.7475C44.0832 11.5593 40.6288 11.2456 37.106 14.1939C32.9154 17.7037 21.3708 24.957 18.133 26.9734C18.3181 27.4856 18.5941 28.157 18.9671 28.8328C19.579 29.9414 20.3652 30.9021 21.2944 31.321L45.7434 11.7475Z" stroke="#ED4E08" stroke-width="2"/>
<path d="M52.9912 5.62953L52.9912 5.62955L52.9965 5.63515C53.1525 5.7998 53.291 5.98036 53.4116 6.1752L53.4116 6.17521L53.4141 6.17915C53.5357 6.37342 53.6371 6.57873 53.7171 6.79274L53.7171 6.79274L53.719 6.79753C53.7999 7.0106 53.8584 7.22958 53.8946 7.45552L53.8946 7.45553L53.8957 7.46172C53.9333 7.68776 53.9485 7.91646 53.9409 8.14718C53.9334 8.37688 53.9033 8.60287 53.8502 8.82929L53.8502 8.82929L53.8493 8.83327C53.7985 9.05375 53.725 9.26886 53.6285 9.4808L53.6274 9.48328C53.5348 9.68834 53.4196 9.88721 53.284 10.0782C53.1478 10.2662 52.9968 10.438 52.8298 10.5938L53.4648 11.2745L52.8298 10.5938C52.6611 10.7512 52.4783 10.8914 52.2818 11.0146C52.0831 11.1367 51.8768 11.2381 51.6643 11.3177C51.4456 11.3991 51.2228 11.4585 50.9937 11.4965L50.9928 11.4966C50.7667 11.5343 50.538 11.5494 50.3073 11.5418C50.0771 11.5343 49.8495 11.5041 49.6236 11.4511L49.6236 11.4511L49.6196 11.4502C49.398 11.3992 49.1813 11.3254 48.9705 11.2295L48.968 11.2284C48.7591 11.134 48.5607 11.0197 48.3735 10.8853C48.1844 10.7495 48.0113 10.5978 47.8533 10.4297L47.8531 10.4295C47.6937 10.26 47.5556 10.0804 47.437 9.88754L47.437 9.88753L47.433 9.88115C47.3136 9.69035 47.2127 9.48483 47.129 9.26517C47.0473 9.04644 46.988 8.82656 46.9524 8.60477L46.9525 8.60477L46.9514 8.59858C46.9137 8.37254 46.8986 8.14384 46.9062 7.91311C46.9137 7.68324 46.9438 7.45768 46.9966 7.23384L46.9966 7.23384L46.9978 7.22865C47.0489 7.00687 47.1225 6.79093 47.2176 6.58318L47.2176 6.58319L47.2206 6.57659C47.3133 6.37017 47.4283 6.17203 47.5631 5.98373C47.6968 5.79752 47.8492 5.62464 48.0186 5.46523C48.1879 5.30748 48.3702 5.16807 48.5645 5.04773L48.566 5.0468C48.7598 4.92631 48.966 4.82519 49.1852 4.74166C49.4031 4.6608 49.6251 4.60169 49.8534 4.56385L49.8543 4.5637C50.0768 4.52662 50.3053 4.5124 50.5398 4.52008L50.5399 4.52009C50.7748 4.52775 51.0004 4.55686 51.223 4.60904C51.4514 4.66298 51.6691 4.7364 51.8766 4.83082L51.8766 4.83083L51.8812 4.83287C52.0854 4.92461 52.2825 5.03928 52.4754 5.17631C52.6637 5.31171 52.8352 5.46224 52.9912 5.62953Z" stroke="#ED4E08" stroke-width="2"/>
<mask id="path-8-inside-1_204_440" fill="white">
<path d="M7.74609 45.3526L18.2567 33.8314L18.5855 34.131L8.07485 45.6506L7.74609 45.3526Z"/>
</mask>
<path d="M7.74609 45.3526L6.26857 44.0047L4.91629 45.487L6.40293 46.8345L7.74609 45.3526ZM18.2567 33.8314L19.6039 32.3532L18.1264 31.0067L16.7792 32.4835L18.2567 33.8314ZM18.5855 34.131L20.0629 35.4791L21.4117 34.0008L19.9326 32.6528L18.5855 34.131ZM8.07485 45.6506L6.73169 47.1325L8.20868 48.4712L9.55229 46.9986L8.07485 45.6506ZM9.22362 46.7005L19.7342 35.1793L16.7792 32.4835L6.26857 44.0047L9.22362 46.7005ZM16.9096 35.3097L17.2383 35.6093L19.9326 32.6528L19.6039 32.3532L16.9096 35.3097ZM17.108 32.783L6.59742 44.3026L9.55229 46.9986L20.0629 35.4791L17.108 32.783ZM9.41802 44.1688L9.08926 43.8708L6.40293 46.8345L6.73169 47.1325L9.41802 44.1688Z" fill="#ED4E08" mask="url(#path-8-inside-1_204_440)"/>
<mask id="path-10-inside-2_204_440" fill="white">
<path d="M7.52734 49.5455L18.038 38.0243L18.3667 38.3239L7.8561 49.8435L7.52734 49.5455Z"/>
</mask>
<path d="M7.52734 49.5455L6.04982 48.1976L4.69754 49.6799L6.18418 51.0274L7.52734 49.5455ZM18.038 38.0243L19.3851 36.5461L17.9077 35.1996L16.5604 36.6764L18.038 38.0243ZM18.3667 38.3239L19.8442 39.6719L21.193 38.1936L19.7139 36.8457L18.3667 38.3239ZM7.8561 49.8435L6.51294 51.3253L7.98993 52.6641L9.33354 51.1915L7.8561 49.8435ZM9.00487 50.8934L19.5155 39.3722L16.5604 36.6764L6.04982 48.1976L9.00487 50.8934ZM16.6908 39.5025L17.0196 39.8021L19.7139 36.8457L19.3851 36.5461L16.6908 39.5025ZM16.8893 36.9759L6.37867 48.4955L9.33354 51.1915L19.8442 39.6719L16.8893 36.9759ZM9.19927 48.3616L8.87051 48.0636L6.18418 51.0274L6.51294 51.3253L9.19927 48.3616Z" fill="#ED4E08" mask="url(#path-10-inside-2_204_440)"/>
<mask id="path-12-inside-3_204_440" fill="white">
<path d="M0 55.8178L15.0825 39.2875L15.4113 39.5871L0.328761 56.1174L0 55.8178Z"/>
</mask>
<path d="M0 55.8178L-1.47743 54.4698L-2.82626 55.9481L-1.34716 57.2961L0 55.8178ZM15.0825 39.2875L16.4297 37.8092L14.9523 36.4629L13.6051 37.9394L15.0825 39.2875ZM15.4113 39.5871L16.8887 40.9351L18.2375 39.4568L16.7584 38.1089L15.4113 39.5871ZM0.328761 56.1174L-1.0184 57.5957L0.458962 58.942L1.8062 57.4655L0.328761 56.1174ZM1.47743 57.1659L16.5599 40.6355L13.6051 37.9394L-1.47743 54.4698L1.47743 57.1659ZM13.7353 40.7657L14.0641 41.0653L16.7584 38.1089L16.4297 37.8092L13.7353 40.7657ZM13.9338 38.2391L-1.14867 54.7694L1.8062 57.4655L16.8887 40.9351L13.9338 38.2391ZM1.67592 54.6392L1.34716 54.3396L-1.34716 57.2961L-1.0184 57.5957L1.67592 54.6392Z" fill="#ED4E08" mask="url(#path-12-inside-3_204_440)"/>
<mask id="path-14-inside-4_204_440" fill="white">
<path d="M43.6992 34.1197L54.2098 22.5985L54.5386 22.8981L44.028 34.4177L43.6992 34.1197Z"/>
</mask>
<path d="M43.6992 34.1197L42.2217 32.7718L40.8694 34.2541L42.3561 35.6016L43.6992 34.1197ZM54.2098 22.5985L55.557 21.1203L54.0795 19.7738L52.7323 21.2506L54.2098 22.5985ZM54.5386 22.8981L56.016 24.2462L57.3649 22.7678L55.8858 21.4199L54.5386 22.8981ZM44.028 34.4177L42.6848 35.8996L44.1618 37.2383L45.5054 35.7657L44.028 34.4177ZM45.1767 35.4676L55.6874 23.9464L52.7323 21.2506L42.2217 32.7718L45.1767 35.4676ZM52.8627 24.0767L53.1914 24.3764L55.8858 21.4199L55.557 21.1203L52.8627 24.0767ZM53.0612 21.5501L42.5505 33.0697L45.5054 35.7657L56.016 24.2462L53.0612 21.5501ZM45.3711 32.9358L45.0424 32.6378L42.3561 35.6016L42.6848 35.8996L45.3711 32.9358Z" fill="#ED4E08" mask="url(#path-14-inside-4_204_440)"/>
<mask id="path-16-inside-5_204_440" fill="white">
<path d="M43.4785 38.3125L53.9908 26.793L54.3179 27.091L43.8073 38.6105L43.4785 38.3125Z"/>
</mask>
<path d="M43.4785 38.3125L42.0012 36.9644L40.6485 38.4467L42.1354 39.7944L43.4785 38.3125ZM53.9908 26.793L55.3376 25.3144L53.8604 23.9688L52.5134 25.4448L53.9908 26.793ZM54.3179 27.091L55.7953 28.439L57.1445 26.9603L55.6647 25.6124L54.3179 27.091ZM43.8073 38.6105L42.4641 40.0924L43.9411 41.4312L45.2847 39.9586L43.8073 38.6105ZM44.9558 39.6607L55.4681 28.1411L52.5134 25.4448L42.0012 36.9644L44.9558 39.6607ZM52.644 28.2715L52.9711 28.5695L55.6647 25.6124L55.3376 25.3144L52.644 28.2715ZM52.8405 25.7429L42.3298 37.2625L45.2847 39.9586L55.7953 28.439L52.8405 25.7429ZM45.1504 37.1287L44.8217 36.8307L42.1354 39.7944L42.4641 40.0924L45.1504 37.1287Z" fill="#ED4E08" mask="url(#path-16-inside-5_204_440)"/>
<mask id="path-18-inside-6_204_440" fill="white">
<path d="M35.9531 44.5849L51.034 28.0562L51.3628 28.3541L36.2819 44.8845L35.9531 44.5849Z"/>
</mask>
<path d="M35.9531 44.5849L34.4757 43.2369L33.1269 44.7152L34.606 46.0631L35.9531 44.5849ZM51.034 28.0562L52.3772 26.5743L50.9002 25.2355L49.5566 26.7081L51.034 28.0562ZM51.3628 28.3541L52.8403 29.7021L54.1926 28.2198L52.7059 26.8723L51.3628 28.3541ZM36.2819 44.8845L34.9347 46.3627L36.4122 47.7092L37.7594 46.2324L36.2819 44.8845ZM37.4306 45.9329L52.5115 29.4042L49.5566 26.7081L34.4757 43.2369L37.4306 45.9329ZM49.6908 29.538L50.0196 29.836L52.7059 26.8723L52.3772 26.5743L49.6908 29.538ZM49.8853 27.0062L34.8044 43.5365L37.7594 46.2324L52.8403 29.7021L49.8853 27.0062ZM37.629 43.4063L37.3003 43.1066L34.606 46.0631L34.9347 46.3627L37.629 43.4063Z" fill="#ED4E08" mask="url(#path-18-inside-6_204_440)"/>
</svg>
