<svg width="48" height="48" viewBox="0 0 48 48" fill="none" xmlns="http://www.w3.org/2000/svg">
<path d="M39.4796 11.6163C39.4796 11.7188 39.4596 11.8175 39.4209 11.9125C39.3821 12.0075 39.3259 12.0912 39.2534 12.1637C39.1809 12.2362 39.0972 12.2925 39.0022 12.3325C38.9072 12.3712 38.8085 12.3912 38.706 12.3912C38.6035 12.3912 38.5047 12.3712 38.4097 12.3325C38.3148 12.2925 38.231 12.2362 38.1585 12.1637C38.086 12.0912 38.0298 12.0075 37.991 11.9125C37.951 11.8175 37.931 11.7188 37.931 11.6163C37.931 11.5138 37.9123 11.4151 37.8723 11.3201C37.8336 11.2251 37.7773 11.1413 37.7048 11.0688C37.6323 10.9964 37.5486 10.9414 37.4536 10.9014C37.3586 10.8626 37.2599 10.8426 37.1574 10.8426H26.3198V8.66785C26.466 8.58286 26.6072 8.49037 26.7435 8.39038C26.8797 8.29039 27.0109 8.18415 27.1359 8.06916C27.2597 7.95542 27.3784 7.83418 27.4896 7.70795C27.6009 7.58046 27.7046 7.44797 27.8021 7.30924C27.8996 7.1705 27.9883 7.02677 28.0696 6.87928C28.1508 6.73055 28.2233 6.57806 28.2883 6.42183C28.3533 6.2656 28.4095 6.10686 28.457 5.94438C28.5045 5.7819 28.542 5.61816 28.572 5.45193C28.6008 5.28445 28.6208 5.11697 28.632 4.94823C28.6433 4.7795 28.6445 4.61077 28.6383 4.44204C28.6308 4.2733 28.6133 4.10582 28.5883 3.93834C28.562 3.77086 28.5283 3.60587 28.4845 3.44339C28.4395 3.27966 28.387 3.11968 28.3258 2.96094C28.2646 2.80346 28.1958 2.64972 28.1171 2.49974C28.0396 2.34976 27.9533 2.20477 27.8596 2.06479C27.7659 1.92355 27.6646 1.78856 27.5559 1.65983C27.4471 1.52984 27.3309 1.4061 27.2097 1.28987C27.0872 1.17238 26.9597 1.06239 26.8247 0.9599C26.691 0.857411 26.551 0.762421 26.4072 0.67368C26.2623 0.586189 26.1135 0.507447 25.961 0.434955C25.8073 0.363712 25.6511 0.301219 25.4911 0.246224C25.3299 0.19248 25.1674 0.147484 25.0024 0.109989C24.8374 0.0737424 24.6712 0.0462453 24.5037 0.0274971C24.335 0.00999912 24.1662 0 23.9975 0C23.8288 0 23.66 0.00999912 23.4913 0.0274971C23.3238 0.0462453 23.1576 0.0737424 22.9926 0.109989C22.8276 0.147484 22.6651 0.19248 22.5039 0.246224C22.3439 0.301219 22.1877 0.363712 22.034 0.434955C21.8815 0.507447 21.7327 0.586189 21.5878 0.67368C21.444 0.762421 21.304 0.857411 21.1703 0.9599C21.0353 1.06239 20.9078 1.17238 20.7853 1.28987C20.6641 1.4061 20.5479 1.52984 20.4391 1.65983C20.3304 1.78856 20.2291 1.92355 20.1354 2.06479C20.0417 2.20477 19.9554 2.34976 19.8779 2.49974C19.7992 2.64972 19.7304 2.80346 19.6692 2.96094C19.608 3.11968 19.5542 3.27966 19.5105 3.44339C19.4667 3.60587 19.433 3.77086 19.4067 3.93834C19.3817 4.10582 19.3642 4.2733 19.3567 4.44204C19.3505 4.61077 19.3517 4.7795 19.363 4.94823C19.3742 5.11697 19.3942 5.28445 19.423 5.45193C19.453 5.61816 19.4905 5.7819 19.538 5.94438C19.5855 6.10686 19.6417 6.2656 19.7067 6.42183C19.7717 6.57806 19.8442 6.73055 19.9254 6.87928C20.0067 7.02677 20.0954 7.1705 20.1929 7.30924C20.2904 7.44797 20.3941 7.58046 20.5054 7.70795C20.6166 7.83418 20.7353 7.95542 20.8591 8.06916C20.9841 8.18415 21.1153 8.29039 21.2515 8.39038C21.3878 8.49037 21.529 8.58286 21.6752 8.66785V10.8426H10.8376C10.7351 10.8426 10.6364 10.8626 10.5414 10.9014C10.4464 10.9414 10.3627 10.9964 10.2902 11.0688C10.2177 11.1413 10.1614 11.2251 10.1227 11.3201C10.0827 11.4151 10.064 11.5138 10.064 11.6163C10.064 11.7188 10.044 11.8175 10.004 11.9125C9.96521 12.0075 9.90897 12.0912 9.83648 12.1637C9.76398 12.2362 9.68024 12.2925 9.58525 12.3325C9.49026 12.3712 9.39152 12.3912 9.28903 12.3912C9.18654 12.3912 9.0878 12.3712 8.99281 12.3325C8.89782 12.2925 8.81408 12.2362 8.74159 12.1637C8.6691 12.0912 8.61285 12.0075 8.57411 11.9125C8.53536 11.8175 8.51536 11.7188 8.51536 11.6163C8.51536 11.5138 8.49537 11.4151 8.45662 11.3201C8.41662 11.2251 8.36163 11.1413 8.28789 11.0688C8.21539 10.9964 8.13165 10.9414 8.03791 10.9014C7.94292 10.8626 7.84418 10.8426 7.74169 10.8426H0V12.3912H7.09801C7.21675 12.7199 7.39923 13.0086 7.64795 13.2549C7.89543 13.5023 8.1854 13.6836 8.51536 13.7998V21.719C8.35288 21.7352 8.1904 21.7565 8.02916 21.7827C7.86793 21.8102 7.70795 21.8415 7.54796 21.879C7.38923 21.9152 7.2305 21.9565 7.07426 22.004C6.91678 22.0502 6.7618 22.1027 6.60806 22.1589C6.45558 22.2152 6.30309 22.2777 6.15436 22.3439C6.00437 22.4102 5.85689 22.4802 5.71191 22.5564C5.56692 22.6314 5.42444 22.7114 5.28445 22.7964C5.14446 22.8814 5.00823 22.9701 4.87324 23.0638C4.73951 23.1563 4.60827 23.2538 4.47953 23.3551C4.35205 23.4576 4.22706 23.5625 4.10457 23.6725C3.98334 23.7813 3.86585 23.895 3.75211 24.0125C3.63712 24.1287 3.52713 24.25 3.41964 24.3737C3.31341 24.4974 3.21092 24.6249 3.11218 24.7549C3.01344 24.8862 2.9197 25.0199 2.82971 25.1561C2.73971 25.2924 2.65347 25.4311 2.57223 25.5736C2.49099 25.7161 2.41475 25.8598 2.34226 26.006C2.26976 26.1535 2.20227 26.3023 2.13978 26.4535C2.07728 26.6047 2.01979 26.7572 1.96605 26.9122C1.91355 27.0672 1.86481 27.2234 1.82231 27.3809C1.77857 27.5384 1.74107 27.6971 1.70732 27.8571C1.67483 28.0183 1.64733 28.1796 1.62358 28.3408C1.60108 28.5033 1.58359 28.6658 1.57109 28.8282C1.55859 28.992 1.55109 29.1545 1.54859 29.3182C1.54734 29.4819 1.54984 29.6457 1.55734 29.8081C1.56609 29.9719 1.57984 30.1356 1.59858 30.2981C1.61608 30.4606 1.63983 30.6218 1.66858 30.783C1.69732 30.9443 1.73107 31.1043 1.76982 31.263C1.80981 31.4217 1.85356 31.5792 1.9023 31.7354C1.95105 31.8917 2.00479 32.0454 2.06353 32.1979C2.12228 32.3504 2.18602 32.5016 2.25352 32.6503C2.32226 32.7991 2.39475 32.9453 2.47224 33.0891C2.54973 33.2328 2.63223 33.374 2.71847 33.514C2.80471 33.6527 2.89595 33.7877 2.99094 33.9215C3.08593 34.054 3.18467 34.1839 3.28841 34.3114C3.3909 34.4377 3.49839 34.5614 3.60962 34.6814C3.72086 34.8014 3.83585 34.9176 3.95459 35.0301C4.07333 35.1426 4.19456 35.2513 4.3208 35.3563C4.44579 35.4613 4.57452 35.5625 4.70576 35.66C4.83825 35.7563 4.97198 35.8488 5.11072 35.9375C5.2482 36.0262 5.38819 36.11 5.53067 36.1887C5.67441 36.2687 5.81939 36.3425 5.96688 36.4137C6.11561 36.4837 6.26435 36.5487 6.41683 36.6099C6.56807 36.6699 6.7218 36.7262 6.87803 36.7774C7.03302 36.8274 7.1905 36.8737 7.34798 36.9149C7.50672 36.9562 7.6667 36.9924 7.82668 37.0224C7.98792 37.0536 8.14915 37.0799 8.31038 37.0999C8.47287 37.1211 8.63535 37.1361 8.79908 37.1474C8.96282 37.1574 9.1253 37.1624 9.28903 37.1624C9.45277 37.1624 9.6165 37.1574 9.77898 37.1474C9.94271 37.1361 10.1052 37.1211 10.2677 37.0999C10.4302 37.0799 10.5914 37.0536 10.7526 37.0224C10.9126 36.9924 11.0726 36.9562 11.2301 36.9149C11.3888 36.8737 11.545 36.8274 11.7013 36.7774C11.8563 36.7262 12.01 36.6699 12.1625 36.6099C12.3137 36.5487 12.4637 36.4837 12.6112 36.4137C12.7587 36.3425 12.9049 36.2687 13.0474 36.1887C13.1899 36.11 13.3311 36.0262 13.4686 35.9375C13.6061 35.8488 13.7411 35.7563 13.8723 35.66C14.0048 35.5625 14.1335 35.4613 14.2585 35.3563C14.3835 35.2513 14.506 35.1426 14.6247 35.0301C14.7435 34.9176 14.8572 34.8014 14.9684 34.6814C15.0797 34.5614 15.1872 34.4377 15.2909 34.3114C15.3934 34.1839 15.4934 34.054 15.5884 33.9215C15.6834 33.7877 15.7734 33.6527 15.8608 33.514C15.9471 33.374 16.0283 33.2328 16.1058 33.0891C16.1833 32.9453 16.2571 32.7991 16.3246 32.6503C16.3933 32.5016 16.457 32.3504 16.5158 32.1979C16.5745 32.0454 16.6283 31.8917 16.677 31.7354C16.7258 31.5792 16.7695 31.4217 16.8082 31.263C16.847 31.1043 16.8807 30.9443 16.9095 30.783C16.9382 30.6218 16.962 30.4606 16.9807 30.2981C16.9995 30.1356 17.012 29.9719 17.0207 29.8081C17.0295 29.6457 17.032 29.4819 17.0295 29.3182C17.0282 29.1545 17.0207 28.992 17.0082 28.8282C16.9957 28.6658 16.977 28.5033 16.9545 28.3408C16.932 28.1796 16.9045 28.0183 16.8707 27.8571C16.8382 27.6971 16.7995 27.5384 16.757 27.3809C16.7133 27.2234 16.6658 27.0672 16.612 26.9122C16.5595 26.7572 16.502 26.6047 16.4395 26.4535C16.3758 26.3023 16.3083 26.1535 16.2371 26.006C16.1646 25.8598 16.0883 25.7161 16.0071 25.5736C15.9258 25.4311 15.8396 25.2924 15.7496 25.1561C15.6596 25.0199 15.5646 24.8862 15.4659 24.7549C15.3684 24.6249 15.2647 24.4974 15.1584 24.3737C15.0522 24.25 14.9409 24.1287 14.8272 24.0125C14.7135 23.895 14.5947 23.7813 14.4735 23.6725C14.3523 23.5625 14.2273 23.4576 14.0985 23.3551C13.971 23.2538 13.8398 23.1563 13.7048 23.0638C13.5711 22.9701 13.4336 22.8814 13.2936 22.7964C13.1536 22.7114 13.0111 22.6314 12.8662 22.5564C12.7212 22.4802 12.5737 22.4102 12.425 22.3439C12.275 22.2777 12.1237 22.2152 11.97 22.1589C11.8163 22.1027 11.6613 22.0502 11.5051 22.004C11.3476 21.9565 11.1901 21.9152 11.0314 21.879C10.8714 21.8415 10.7114 21.8102 10.5502 21.7827C10.3877 21.7565 10.2264 21.7352 10.064 21.719V13.7998C10.3939 13.6836 10.6826 13.5023 10.9314 13.2549C11.1788 13.0086 11.3626 12.7199 11.4801 12.3912H21.6752V41.8069H20.9016C20.7241 41.8069 20.5466 41.8156 20.3704 41.8331C20.1929 41.8506 20.0179 41.8769 19.8442 41.9106C19.6705 41.9456 19.498 41.9894 19.328 42.0406C19.158 42.0919 18.9918 42.1519 18.8268 42.2194C18.6631 42.2881 18.5031 42.3631 18.3468 42.4468C18.1906 42.5306 18.0381 42.6218 17.8906 42.7206C17.7432 42.8193 17.6007 42.9243 17.4632 43.0368C17.3257 43.1493 17.1945 43.2692 17.0695 43.3942C16.9445 43.5192 16.8245 43.6505 16.712 43.7879C16.5995 43.9254 16.4945 44.0679 16.3958 44.2154C16.2971 44.3629 16.2058 44.5154 16.1221 44.6716C16.0383 44.8278 15.9621 44.9878 15.8946 45.1528C15.8271 45.3165 15.7671 45.4828 15.7159 45.6527C15.6646 45.8227 15.6209 45.9952 15.5859 46.1689C15.5521 46.3427 15.5259 46.5177 15.5084 46.6951C15.4909 46.8714 15.4821 47.0489 15.4821 47.2263C15.4821 47.3288 15.5021 47.4276 15.5409 47.5225C15.5809 47.6175 15.6359 47.7013 15.7084 47.7738C15.7821 47.8463 15.8658 47.9013 15.9596 47.9413C16.0546 47.98 16.1533 48 16.2558 48H31.7392C31.8417 48 31.9404 47.98 32.0354 47.9413C32.1292 47.9013 32.2129 47.8463 32.2854 47.7738C32.3591 47.7013 32.4141 47.6175 32.4541 47.5225C32.4929 47.4276 32.5129 47.3288 32.5129 47.2263C32.5129 47.0489 32.5041 46.8714 32.4866 46.6951C32.4691 46.5177 32.4429 46.3427 32.4091 46.1689C32.3741 45.9952 32.3304 45.8227 32.2791 45.6527C32.2279 45.4828 32.1679 45.3165 32.1004 45.1528C32.0329 44.9878 31.9567 44.8278 31.8729 44.6716C31.7892 44.5154 31.6979 44.3629 31.5992 44.2154C31.5005 44.0679 31.3955 43.9254 31.283 43.7879C31.1705 43.6505 31.0505 43.5192 30.9255 43.3942C30.8005 43.2692 30.6693 43.1493 30.5318 43.0368C30.3943 42.9243 30.2518 42.8193 30.1044 42.7206C29.9569 42.6218 29.8044 42.5306 29.6482 42.4468C29.4919 42.3631 29.3319 42.2881 29.1682 42.2194C29.0032 42.1519 28.837 42.0919 28.667 42.0406C28.497 41.9894 28.3246 41.9456 28.1508 41.9106C27.9771 41.8769 27.8021 41.8506 27.6246 41.8331C27.4484 41.8156 27.2709 41.8069 27.0934 41.8069H26.3198V12.3912H36.5149C36.6324 12.7199 36.8162 13.0086 37.0636 13.2549C37.3124 13.5023 37.6011 13.6836 37.931 13.7998V21.719C37.7686 21.7352 37.6073 21.7565 37.4449 21.7827C37.2836 21.8102 37.1236 21.8415 36.9636 21.879C36.8049 21.9152 36.6474 21.9565 36.4899 22.004C36.3337 22.0502 36.1787 22.1027 36.025 22.1589C35.8713 22.2152 35.72 22.2777 35.57 22.3439C35.4213 22.4102 35.2738 22.4802 35.1288 22.5564C34.9839 22.6314 34.8414 22.7114 34.7014 22.7964C34.5614 22.8814 34.4239 22.9701 34.2902 23.0638C34.1552 23.1563 34.024 23.2538 33.8965 23.3551C33.7677 23.4576 33.6427 23.5625 33.5215 23.6725C33.4003 23.7813 33.2815 23.895 33.1678 24.0125C33.0541 24.1287 32.9428 24.25 32.8366 24.3737C32.7303 24.4974 32.6266 24.6249 32.5291 24.7549C32.4304 24.8862 32.3354 25.0199 32.2454 25.1561C32.1554 25.2924 32.0692 25.4311 31.9879 25.5736C31.9067 25.7161 31.8304 25.8598 31.7579 26.006C31.6867 26.1535 31.6192 26.3023 31.5555 26.4535C31.493 26.6047 31.4355 26.7572 31.383 26.9122C31.3292 27.0672 31.2817 27.2234 31.238 27.3809C31.1955 27.5384 31.1568 27.6971 31.1243 27.8571C31.0905 28.0183 31.063 28.1796 31.0405 28.3408C31.018 28.5033 30.9993 28.6658 30.9868 28.8282C30.9743 28.992 30.9668 29.1545 30.9655 29.3182C30.963 29.4819 30.9655 29.6457 30.9743 29.8081C30.983 29.9719 30.9955 30.1356 31.0143 30.2981C31.033 30.4606 31.0568 30.6218 31.0855 30.783C31.1143 30.9443 31.148 31.1043 31.1868 31.263C31.2255 31.4217 31.2692 31.5792 31.318 31.7354C31.3667 31.8917 31.4205 32.0454 31.4792 32.1979C31.538 32.3504 31.6017 32.5016 31.6705 32.6503C31.7379 32.7991 31.8117 32.9453 31.8892 33.0891C31.9667 33.2328 32.0479 33.374 32.1342 33.514C32.2216 33.6527 32.3116 33.7877 32.4066 33.9215C32.5016 34.054 32.6016 34.1839 32.7041 34.3114C32.8078 34.4377 32.9153 34.5614 33.0266 34.6814C33.1378 34.8014 33.2515 34.9176 33.3703 35.0301C33.489 35.1426 33.6115 35.2513 33.7365 35.3563C33.8615 35.4613 33.9902 35.5625 34.1227 35.66C34.2539 35.7563 34.3889 35.8488 34.5264 35.9375C34.6639 36.0262 34.8051 36.11 34.9476 36.1887C35.0901 36.2687 35.2363 36.3425 35.3838 36.4137C35.5313 36.4837 35.6813 36.5487 35.8325 36.6099C35.985 36.6699 36.1387 36.7262 36.2937 36.7774C36.45 36.8274 36.6062 36.8737 36.7649 36.9149C36.9224 36.9562 37.0824 36.9924 37.2424 37.0224C37.4036 37.0536 37.5648 37.0799 37.7273 37.0999C37.8898 37.1211 38.0523 37.1361 38.216 37.1474C38.3785 37.1574 38.5422 37.1624 38.706 37.1624C38.8697 37.1624 39.0322 37.1574 39.1959 37.1474C39.3596 37.1361 39.5221 37.1211 39.6846 37.0999C39.8458 37.0799 40.0071 37.0536 40.1683 37.0224C40.3283 36.9924 40.4883 36.9562 40.647 36.9149C40.8045 36.8737 40.962 36.8274 41.117 36.7774C41.2732 36.7262 41.4269 36.6699 41.5782 36.6099C41.7307 36.5487 41.8794 36.4837 42.0281 36.4137C42.1756 36.3425 42.3206 36.2687 42.4643 36.1887C42.6068 36.11 42.7468 36.0262 42.8843 35.9375C43.023 35.8488 43.1568 35.7563 43.2892 35.66C43.4205 35.5625 43.5492 35.4613 43.6742 35.3563C43.8004 35.2513 43.9217 35.1426 44.0404 35.0301C44.1591 34.9176 44.2741 34.8014 44.3854 34.6814C44.4966 34.5614 44.6041 34.4377 44.7066 34.3114C44.8103 34.1839 44.9091 34.054 45.0041 33.9215C45.0991 33.7877 45.1903 33.6527 45.2765 33.514C45.3628 33.374 45.4453 33.2328 45.5228 33.0891C45.6003 32.9453 45.6727 32.7991 45.7415 32.6503C45.809 32.5016 45.8727 32.3504 45.9315 32.1979C45.9902 32.0454 46.044 31.8917 46.0927 31.7354C46.1414 31.5792 46.1852 31.4217 46.2252 31.263C46.2639 31.1043 46.2977 30.9443 46.3264 30.783C46.3552 30.6218 46.3789 30.4606 46.3964 30.2981C46.4152 30.1356 46.4289 29.9719 46.4377 29.8081C46.4452 29.6457 46.4477 29.4819 46.4464 29.3182C46.4439 29.1545 46.4364 28.992 46.4239 28.8282C46.4114 28.6658 46.3939 28.5033 46.3714 28.3408C46.3477 28.1796 46.3202 28.0183 46.2877 27.8571C46.2539 27.6971 46.2164 27.5384 46.1727 27.3809C46.1302 27.2234 46.0815 27.0672 46.029 26.9122C45.9752 26.7572 45.9177 26.6047 45.8552 26.4535C45.7927 26.3023 45.7252 26.1535 45.6527 26.006C45.5803 25.8598 45.504 25.7161 45.4228 25.5736C45.3415 25.4311 45.2553 25.2924 45.1653 25.1561C45.0753 25.0199 44.9816 24.8862 44.8828 24.7549C44.7841 24.6249 44.6816 24.4974 44.5754 24.3737C44.4679 24.25 44.3579 24.1287 44.2429 24.0125C44.1292 23.895 44.0117 23.7813 43.8904 23.6725C43.7679 23.5625 43.643 23.4576 43.5155 23.3551C43.3867 23.2538 43.2555 23.1563 43.1218 23.0638C42.9868 22.9701 42.8505 22.8814 42.7106 22.7964C42.5706 22.7114 42.4281 22.6314 42.2831 22.5564C42.1381 22.4802 41.9906 22.4102 41.8406 22.3439C41.6907 22.2777 41.5394 22.2152 41.3869 22.1589C41.2332 22.1027 41.0782 22.0502 40.9207 22.004C40.7645 21.9565 40.6058 21.9152 40.447 21.879C40.2871 21.8415 40.1271 21.8102 39.9658 21.7827C39.8046 21.7565 39.6421 21.7352 39.4796 21.719V13.7998C39.8096 13.6836 40.0996 13.5023 40.347 13.2549C40.5958 13.0086 40.7783 12.7199 40.897 12.3912H47.995V10.8426H40.2533C40.1508 10.8426 40.0521 10.8626 39.9571 10.9014C39.8633 10.9414 39.7796 10.9964 39.7059 11.0688C39.6334 11.1413 39.5784 11.2251 39.5384 11.3201C39.4996 11.4151 39.4796 11.5138 39.4796 11.6163ZM11.6113 35.1576C10.8676 35.4626 10.0939 35.6138 9.28903 35.6138C8.48537 35.6138 7.7117 35.4626 6.96677 35.1576V33.2915C6.96677 33.189 6.98677 33.0903 7.02552 32.9953C7.06551 32.9003 7.12176 32.8166 7.19425 32.7441C7.26674 32.6716 7.35048 32.6154 7.44547 32.5766C7.53921 32.5379 7.63795 32.5179 7.74169 32.5179H10.8376C10.9401 32.5179 11.0388 32.5379 11.1338 32.5766C11.2288 32.6154 11.3126 32.6716 11.3851 32.7441C11.4576 32.8166 11.5138 32.9003 11.5525 32.9953C11.5925 33.0903 11.6113 33.189 11.6113 33.2915V35.1576ZM15.4821 29.4207C15.4821 29.8856 15.4296 30.3431 15.3272 30.7955C15.2234 31.248 15.0722 31.6829 14.871 32.1004C14.6697 32.5191 14.4247 32.9091 14.136 33.2728C13.8473 33.6352 13.5223 33.9615 13.1599 34.2514V33.2915C13.1599 33.139 13.1449 32.9878 13.1149 32.8391C13.0861 32.6891 13.0411 32.5441 12.9836 32.4029C12.9249 32.2616 12.8537 32.1279 12.7687 32.0017C12.6837 31.8754 12.5874 31.7579 12.4799 31.6492C12.3725 31.5417 12.255 31.4455 12.1275 31.3605C12.0012 31.2767 11.8675 31.2043 11.7263 31.1468C11.585 31.088 11.4401 31.0443 11.2901 31.0143C11.1413 30.9843 10.9901 30.9693 10.8376 30.9693H7.74169C7.58921 30.9693 7.43798 30.9843 7.28799 31.0143C7.13801 31.0443 6.99302 31.088 6.85179 31.1468C6.7118 31.2043 6.57806 31.2767 6.45058 31.3605C6.32434 31.4455 6.20685 31.5417 6.09936 31.6492C5.99063 31.7579 5.89439 31.8754 5.81064 32.0017C5.72565 32.1279 5.65441 32.2616 5.59567 32.4029C5.53692 32.5441 5.49318 32.6891 5.46318 32.8391C5.43318 32.9878 5.41819 33.139 5.41819 33.2915V34.2514C5.31695 34.1702 5.21821 34.0852 5.12197 33.9977C5.02573 33.9102 4.93199 33.8202 4.84075 33.7265C4.75076 33.6327 4.66326 33.5365 4.57827 33.4378C4.49328 33.3378 4.41204 33.2365 4.33455 33.1315C4.25581 33.0278 4.18081 32.9216 4.10957 32.8128C4.03833 32.7028 3.97084 32.5929 3.90584 32.4791C3.8421 32.3654 3.78086 32.2504 3.72336 32.1329C3.66712 32.0167 3.61337 31.8979 3.56338 31.7767C3.51463 31.6567 3.46839 31.5355 3.42589 31.4117C3.38465 31.288 3.3459 31.163 3.31216 31.038C3.27841 30.9118 3.24841 30.7855 3.22216 30.6581C3.19592 30.5306 3.17342 30.4018 3.15592 30.2731C3.13842 30.1444 3.12342 30.0144 3.11468 29.8844C3.10468 29.7544 3.09843 29.6244 3.09718 29.4944C3.09593 29.3632 3.09843 29.2332 3.10468 29.1032C3.11093 28.9732 3.12217 28.8432 3.13592 28.7145C3.15092 28.5845 3.16967 28.4558 3.19342 28.327C3.21591 28.1996 3.24341 28.0721 3.27341 27.9458C3.30466 27.8184 3.33965 27.6934 3.3784 27.5696C3.41714 27.4446 3.46089 27.3222 3.50713 27.1997C3.55338 27.0784 3.60462 26.9584 3.65837 26.8397C3.71211 26.721 3.77086 26.6047 3.8321 26.4897C3.89334 26.3748 3.95834 26.2623 4.02708 26.1523C4.09582 26.041 4.16832 25.9323 4.24331 25.8261C4.31955 25.7198 4.39829 25.6161 4.48078 25.5161C4.56202 25.4149 4.64702 25.3161 4.73576 25.2199C4.8245 25.1249 4.91574 25.0311 5.00948 24.9412C5.10322 24.8512 5.20071 24.7649 5.3007 24.6799C5.39944 24.5962 5.50193 24.5162 5.60692 24.4387C5.7119 24.3612 5.81814 24.2862 5.92813 24.2162C6.03812 24.145 6.14936 24.0787 6.2631 24.015C6.37684 23.9513 6.49182 23.8913 6.60931 23.8338C6.7268 23.7775 6.84554 23.725 6.96677 23.6763C7.08801 23.6275 7.20925 23.5825 7.33299 23.5413C7.45672 23.5001 7.58171 23.4626 7.70795 23.4301C7.83418 23.3963 7.96042 23.3676 8.08791 23.3426C8.21664 23.3163 8.34413 23.2951 8.47412 23.2788C8.60285 23.2613 8.73284 23.2488 8.86283 23.2388C8.99281 23.2301 9.1228 23.2251 9.25279 23.2251C9.38277 23.2238 9.51401 23.2276 9.644 23.2351C9.77398 23.2426 9.90272 23.2538 10.0327 23.2688C10.1614 23.2851 10.2902 23.3051 10.4189 23.3288C10.5464 23.3526 10.6739 23.3801 10.8001 23.4113C10.9264 23.4438 11.0526 23.4788 11.1763 23.5188C11.3001 23.5588 11.4226 23.6025 11.5438 23.65C11.665 23.6975 11.785 23.7488 11.9038 23.8038C12.0212 23.8588 12.1375 23.9175 12.2525 23.9788C12.3662 24.0412 12.4787 24.1075 12.5887 24.1775C12.6999 24.2462 12.8074 24.3187 12.9124 24.395C13.0186 24.4712 13.1224 24.5512 13.2224 24.6337C13.3236 24.7162 13.4211 24.8024 13.5161 24.8912C13.6111 24.9799 13.7036 25.0724 13.7936 25.1674C13.8823 25.2611 13.9685 25.3586 14.0523 25.4598C14.136 25.5598 14.216 25.6623 14.2923 25.7673C14.3685 25.8723 14.4422 25.9798 14.5122 26.0898C14.5822 26.1998 14.6485 26.3123 14.7122 26.426C14.7747 26.5397 14.8347 26.656 14.8897 26.7735C14.9447 26.8922 14.9972 27.0109 15.0447 27.1322C15.0934 27.2534 15.1372 27.3759 15.1784 27.4996C15.2184 27.6234 15.2547 27.7484 15.2872 27.8746C15.3197 28.0008 15.3484 28.1283 15.3721 28.2558C15.3971 28.3845 15.4171 28.512 15.4334 28.642C15.4496 28.7708 15.4621 28.9007 15.4696 29.0307C15.4784 29.1607 15.4821 29.2907 15.4821 29.4207ZM27.0934 43.3555C27.3159 43.3555 27.5346 43.3742 27.7534 43.4117C27.9721 43.4492 28.1846 43.5055 28.3933 43.5792C28.602 43.6542 28.8032 43.7454 28.9957 43.8542C29.1882 43.9629 29.3707 44.0879 29.5419 44.2279C29.7144 44.3679 29.8719 44.5216 30.0169 44.6878C30.1631 44.8553 30.2931 45.0341 30.4068 45.2228C30.5218 45.4128 30.6193 45.6102 30.6993 45.8165C30.7805 46.0227 30.843 46.2352 30.8868 46.4514H17.1082C17.152 46.2352 17.2145 46.0227 17.2957 45.8177C17.3757 45.6115 17.4732 45.4128 17.5882 45.224C17.7019 45.0341 17.8319 44.8553 17.9769 44.6891C18.1219 44.5216 18.2806 44.3679 18.4518 44.2279C18.6243 44.0879 18.8055 43.9629 18.9993 43.8542C19.1918 43.7454 19.393 43.6542 19.6017 43.5805C19.8092 43.5055 20.0229 43.4492 20.2416 43.4117C20.4591 43.3742 20.6791 43.3555 20.9016 43.3555H27.0934ZM23.2238 41.8069V9.22529C23.74 9.31778 24.255 9.31778 24.7712 9.22529V41.8069H23.2238ZM23.9975 7.74669C23.7938 7.74669 23.5925 7.7267 23.3938 7.6867C23.1938 7.6467 23.0001 7.58796 22.8126 7.51047C22.6251 7.43298 22.4464 7.33674 22.2777 7.22425C22.1077 7.11176 21.9515 6.98302 21.8077 6.83929C21.664 6.69555 21.5353 6.53932 21.4228 6.37059C21.3103 6.2006 21.214 6.02187 21.1365 5.83439C21.0591 5.64691 21.0003 5.45318 20.9603 5.2532C20.9203 5.05447 20.9016 4.85324 20.9016 4.64952C20.9016 4.44579 20.9203 4.24456 20.9603 4.04583C21.0003 3.84585 21.0591 3.65212 21.1365 3.46464C21.214 3.27716 21.3103 3.09843 21.4228 2.92969C21.5353 2.75971 21.664 2.60348 21.8077 2.45974C21.9515 2.31601 22.1077 2.18852 22.2777 2.07478C22.4464 1.9623 22.6251 1.86731 22.8126 1.78856C23.0001 1.71107 23.1938 1.65233 23.3938 1.61233C23.5925 1.57359 23.7938 1.55359 23.9975 1.55359C24.2012 1.55359 24.4025 1.57359 24.6012 1.61233C24.8012 1.65233 24.9949 1.71107 25.1824 1.78856C25.3699 1.86731 25.5486 1.9623 25.7173 2.07478C25.8873 2.18852 26.0435 2.31601 26.1873 2.45974C26.331 2.60348 26.4597 2.75971 26.5722 2.92969C26.6847 3.09843 26.781 3.27716 26.8585 3.46464C26.9359 3.65212 26.9947 3.84585 27.0347 4.04583C27.0747 4.24456 27.0934 4.44579 27.0934 4.64952C27.0934 4.85324 27.0747 5.05447 27.0347 5.2532C26.9947 5.45318 26.9359 5.64691 26.8585 5.83439C26.781 6.02187 26.6847 6.2006 26.5722 6.37059C26.4597 6.53932 26.331 6.69555 26.1873 6.83929C26.0435 6.98302 25.8873 7.11176 25.7173 7.22425C25.5486 7.33674 25.3699 7.43298 25.1824 7.51047C24.9949 7.58796 24.8012 7.6467 24.6012 7.6867C24.4025 7.7267 24.2012 7.74669 23.9975 7.74669ZM41.0282 35.1576C40.2833 35.4626 39.5096 35.6138 38.706 35.6138C37.9011 35.6138 37.1274 35.4626 36.3837 35.1576V33.2915C36.3837 33.189 36.4025 33.0903 36.4425 32.9953C36.4812 32.9003 36.5374 32.8166 36.6099 32.7441C36.6824 32.6716 36.7662 32.6154 36.8612 32.5766C36.9562 32.5379 37.0549 32.5179 37.1574 32.5179H40.2533C40.357 32.5179 40.4558 32.5379 40.5495 32.5766C40.6445 32.6154 40.7283 32.6716 40.8008 32.7441C40.8732 32.8166 40.9295 32.9003 40.9695 32.9953C41.0082 33.0903 41.0282 33.189 41.0282 33.2915V35.1576ZM44.8991 29.4207C44.8978 29.8856 44.8466 30.3431 44.7428 30.7955C44.6404 31.248 44.4879 31.6829 44.2866 32.1004C44.0854 32.5191 43.8417 32.9091 43.553 33.2728C43.2642 33.6352 42.938 33.9615 42.5768 34.2514V33.2915C42.5768 33.139 42.5618 32.9878 42.5318 32.8391C42.5018 32.6891 42.4581 32.5441 42.3993 32.4029C42.3406 32.2616 42.2693 32.1279 42.1844 32.0017C42.1006 31.8754 42.0044 31.7579 41.8956 31.6492C41.7881 31.5417 41.6707 31.4455 41.5444 31.3605C41.4169 31.2767 41.2832 31.2043 41.142 31.1468C41.002 31.088 40.857 31.0443 40.707 31.0143C40.557 30.9843 40.4058 30.9693 40.2533 30.9693H37.1574C37.0049 30.9693 36.8537 30.9843 36.7049 31.0143C36.5549 31.0443 36.41 31.088 36.2687 31.1468C36.1275 31.2043 35.9938 31.2767 35.8675 31.3605C35.74 31.4455 35.6225 31.5417 35.5151 31.6492C35.4076 31.7579 35.3113 31.8754 35.2263 32.0017C35.1413 32.1279 35.0701 32.2616 35.0114 32.4029C34.9539 32.5441 34.9089 32.6891 34.8801 32.8391C34.8501 32.9878 34.8351 33.139 34.8351 33.2915V34.2514C34.7339 34.1702 34.6339 34.0852 34.5377 33.9977C34.4414 33.9102 34.3477 33.8202 34.2577 33.7265C34.1664 33.6327 34.0789 33.5365 33.9952 33.4378C33.9102 33.3378 33.829 33.2365 33.7502 33.1315C33.6727 33.0278 33.5978 32.9216 33.5265 32.8128C33.4553 32.7028 33.3865 32.5929 33.3228 32.4791C33.2578 32.3654 33.1978 32.2504 33.1403 32.1329C33.0828 32.0167 33.0291 31.8979 32.9803 31.7767C32.9303 31.6567 32.8841 31.5355 32.8428 31.4117C32.8003 31.288 32.7628 31.163 32.7291 31.038C32.6941 30.9118 32.6641 30.7855 32.6379 30.6581C32.6116 30.5306 32.5904 30.4018 32.5716 30.2731C32.5541 30.1444 32.5404 30.0144 32.5304 29.8844C32.5204 29.7544 32.5154 29.6244 32.5129 29.4944C32.5116 29.3632 32.5141 29.2332 32.5204 29.1032C32.5279 28.9732 32.5379 28.8432 32.5529 28.7145C32.5679 28.5845 32.5866 28.4558 32.6091 28.327C32.6329 28.1996 32.6591 28.0721 32.6903 27.9458C32.7216 27.8184 32.7566 27.6934 32.7953 27.5696C32.8341 27.4446 32.8766 27.3222 32.9228 27.1997C32.9703 27.0784 33.0203 26.9584 33.0741 26.8397C33.129 26.721 33.1865 26.6047 33.2478 26.4897C33.3103 26.3748 33.3753 26.2623 33.444 26.1523C33.5128 26.041 33.584 25.9323 33.6602 25.8261C33.7352 25.7198 33.814 25.6161 33.8965 25.5161C33.979 25.4149 34.064 25.3161 34.1527 25.2199C34.2402 25.1249 34.3314 25.0311 34.4264 24.9412C34.5202 24.8512 34.6164 24.7637 34.7164 24.6799C34.8164 24.5962 34.9189 24.5162 35.0226 24.4387C35.1276 24.3612 35.2351 24.2862 35.3451 24.2162C35.4538 24.145 35.565 24.0787 35.6788 24.015C35.7925 23.9513 35.9088 23.8913 36.0262 23.8338C36.1437 23.7775 36.2625 23.725 36.3837 23.6763C36.5037 23.6275 36.6262 23.5825 36.7499 23.5413C36.8737 23.5001 36.9986 23.4626 37.1236 23.4301C37.2499 23.3963 37.3774 23.3676 37.5048 23.3426C37.6323 23.3163 37.7611 23.2951 37.8898 23.2788C38.0198 23.2613 38.1485 23.2488 38.2785 23.2388C38.4085 23.2301 38.5385 23.2251 38.6697 23.2251C38.7997 23.2238 38.9297 23.2276 39.0597 23.2351C39.1897 23.2426 39.3197 23.2538 39.4484 23.2688C39.5784 23.2851 39.7071 23.3051 39.8346 23.3288C39.9633 23.3526 40.0908 23.3801 40.2171 23.4113C40.3433 23.4438 40.4683 23.4788 40.592 23.5188C40.717 23.5588 40.8395 23.6025 40.9607 23.65C41.082 23.6975 41.202 23.7488 41.3194 23.8038C41.4382 23.8588 41.5544 23.9175 41.6682 23.9788C41.7831 24.0412 41.8956 24.1075 42.0056 24.1775C42.1156 24.2462 42.2231 24.3187 42.3293 24.395C42.4356 24.4712 42.5381 24.5512 42.6393 24.6337C42.7393 24.7162 42.8368 24.8024 42.933 24.8912C43.028 24.9799 43.1205 25.0724 43.2093 25.1674C43.2992 25.2611 43.3855 25.3586 43.468 25.4598C43.5517 25.5598 43.6317 25.6623 43.7092 25.7673C43.7854 25.8723 43.8592 25.9798 43.9292 26.0898C43.9992 26.1998 44.0654 26.3123 44.1279 26.426C44.1916 26.5397 44.2504 26.656 44.3054 26.7735C44.3616 26.8922 44.4129 27.0109 44.4616 27.1322C44.5091 27.2534 44.5541 27.3759 44.5941 27.4996C44.6341 27.6234 44.6703 27.7484 44.7028 27.8746C44.7353 28.0008 44.7641 28.1283 44.7891 28.2558C44.8128 28.3845 44.8341 28.512 44.8503 28.642C44.8666 28.7708 44.8778 28.9007 44.8866 29.0307C44.8941 29.1607 44.8991 29.2907 44.8991 29.4207Z" fill="#ED4E08"/>
<path d="M6.9668 27.8734C6.9668 28.0259 6.9818 28.1771 7.01179 28.3259C7.04179 28.4758 7.08553 28.6208 7.14428 28.7621C7.20177 28.9033 7.27426 29.037 7.35801 29.1633C7.443 29.2895 7.53924 29.407 7.64673 29.5157C7.75546 29.6232 7.87295 29.7195 7.99919 29.8045C8.12543 29.8882 8.25916 29.9607 8.4004 30.0182C8.54163 30.0769 8.68662 30.1207 8.8366 30.1507C8.98534 30.1807 9.13657 30.1957 9.28905 30.1957C9.44154 30.1957 9.59277 30.1807 9.74276 30.1507C9.89149 30.1207 10.0377 30.0769 10.1777 30.0182C10.3189 29.9607 10.4527 29.8882 10.5802 29.8045C10.7064 29.7195 10.8239 29.6232 10.9314 29.5157C11.0389 29.407 11.1351 29.2895 11.2201 29.1633C11.3051 29.037 11.3763 28.9033 11.4351 28.7621C11.4938 28.6208 11.5376 28.4758 11.5676 28.3259C11.5963 28.1771 11.6113 28.0259 11.6113 27.8734C11.6113 27.7209 11.5963 27.5697 11.5676 27.4197C11.5376 27.271 11.4938 27.1247 11.4351 26.9847C11.3763 26.8435 11.3051 26.7098 11.2201 26.5823C11.1351 26.4561 11.0389 26.3386 10.9314 26.2311C10.8239 26.1236 10.7064 26.0273 10.5802 25.9424C10.4527 25.8574 10.3189 25.7861 10.1777 25.7274C10.0377 25.6686 9.89149 25.6249 9.74276 25.5949C9.59277 25.5661 9.44154 25.5511 9.28905 25.5511C9.13657 25.5511 8.98534 25.5661 8.8366 25.5949C8.68662 25.6249 8.54163 25.6686 8.4004 25.7274C8.25916 25.7861 8.12543 25.8574 7.99919 25.9424C7.87295 26.0273 7.75546 26.1236 7.64673 26.2311C7.53924 26.3386 7.443 26.4561 7.35801 26.5823C7.27426 26.7098 7.20177 26.8435 7.14428 26.9847C7.08553 27.1247 7.04179 27.271 7.01179 27.4197C6.9818 27.5697 6.9668 27.7209 6.9668 27.8734ZM10.064 27.8734C10.064 27.9759 10.044 28.0746 10.004 28.1696C9.96523 28.2646 9.90899 28.3484 9.8365 28.4208C9.76401 28.4933 9.68026 28.5496 9.58527 28.5883C9.49028 28.6271 9.39154 28.6471 9.28905 28.6471C9.18657 28.6471 9.08783 28.6271 8.99284 28.5883C8.89785 28.5496 8.8141 28.4933 8.74161 28.4208C8.66912 28.3484 8.61288 28.2646 8.57413 28.1696C8.53538 28.0746 8.51539 27.9759 8.51539 27.8734C8.51539 27.7709 8.53538 27.6722 8.57413 27.5772C8.61288 27.4822 8.66912 27.3985 8.74161 27.326C8.8141 27.2535 8.89785 27.1972 8.99284 27.1585C9.08783 27.1185 9.18657 27.0985 9.28905 27.0985C9.39154 27.0985 9.49028 27.1185 9.58527 27.1585C9.68026 27.1972 9.76401 27.2535 9.8365 27.326C9.90899 27.3985 9.96523 27.4822 10.004 27.5772C10.044 27.6722 10.064 27.7709 10.064 27.8734Z" fill="#ED4E08"/>
<path d="M36.3838 27.8734C36.3838 28.0259 36.3988 28.1771 36.4275 28.3259C36.4575 28.4758 36.5013 28.6208 36.56 28.7621C36.6188 28.9033 36.69 29.037 36.775 29.1633C36.86 29.2895 36.9562 29.407 37.0637 29.5157C37.1712 29.6232 37.2887 29.7195 37.4149 29.8045C37.5424 29.8882 37.6762 29.9607 37.8174 30.0182C37.9574 30.0769 38.1036 30.1207 38.2523 30.1507C38.4023 30.1807 38.5536 30.1957 38.706 30.1957C38.8585 30.1957 39.0098 30.1807 39.1585 30.1507C39.3085 30.1207 39.4535 30.0769 39.5947 30.0182C39.7347 29.9607 39.8697 29.8882 39.9959 29.8045C40.1221 29.7195 40.2396 29.6232 40.3484 29.5157C40.4559 29.407 40.5521 29.2895 40.6371 29.1633C40.7208 29.037 40.7933 28.9033 40.8508 28.7621C40.9096 28.6208 40.9533 28.4758 40.9833 28.3259C41.0133 28.1771 41.0283 28.0259 41.0283 27.8734C41.0283 27.7209 41.0133 27.5697 40.9833 27.4197C40.9533 27.271 40.9096 27.1247 40.8508 26.9847C40.7933 26.8435 40.7208 26.7098 40.6371 26.5823C40.5521 26.4561 40.4559 26.3386 40.3484 26.2311C40.2396 26.1236 40.1221 26.0273 39.9959 25.9424C39.8697 25.8574 39.7359 25.7861 39.5947 25.7274C39.4535 25.6686 39.3085 25.6249 39.1585 25.5949C39.0098 25.5661 38.8585 25.5511 38.706 25.5511C38.5536 25.5511 38.4023 25.5661 38.2523 25.5949C38.1036 25.6249 37.9574 25.6686 37.8174 25.7274C37.6762 25.7861 37.5424 25.8574 37.4149 25.9424C37.2887 26.0273 37.1712 26.1236 37.0637 26.2311C36.9562 26.3386 36.86 26.4561 36.775 26.5823C36.69 26.7098 36.6188 26.8435 36.56 26.9847C36.5013 27.1247 36.4575 27.271 36.4275 27.4197C36.3988 27.5697 36.3838 27.7209 36.3838 27.8734ZM39.4797 27.8734C39.4797 27.9759 39.4597 28.0746 39.421 28.1696C39.3822 28.2646 39.326 28.3484 39.2535 28.4208C39.181 28.4933 39.0973 28.5496 39.0023 28.5883C38.9073 28.6271 38.8085 28.6471 38.706 28.6471C38.6036 28.6471 38.5048 28.6271 38.4098 28.5883C38.3148 28.5496 38.2311 28.4933 38.1586 28.4208C38.0861 28.3484 38.0299 28.2646 37.9911 28.1696C37.9511 28.0746 37.9311 27.9759 37.9311 27.8734C37.9311 27.7709 37.9511 27.6722 37.9911 27.5772C38.0299 27.4822 38.0861 27.3985 38.1586 27.326C38.2311 27.2535 38.3148 27.1972 38.4098 27.1585C38.5048 27.1185 38.6036 27.0985 38.706 27.0985C38.8085 27.0985 38.9073 27.1185 39.0023 27.1585C39.0973 27.1972 39.181 27.2535 39.2535 27.326C39.326 27.3985 39.3822 27.4822 39.421 27.5772C39.4597 27.6722 39.4797 27.7709 39.4797 27.8734Z" fill="#ED4E08"/>
</svg>
